<?xml version="1.0" encoding="iso-8859-1"?>
<!-- Generator: Adobe Illustrator 19.0.0, SVG Export Plug-In . SVG Version: 6.00 Build 0)  -->
<svg version="1.1" id="Layer_1" xmlns="http://www.w3.org/2000/svg" xmlns:xlink="http://www.w3.org/1999/xlink" x="0px" y="0px"
	 viewBox="0 0 511.996 511.996" style="enable-background:new 0 0 511.996 511.996;" xml:space="preserve">
<g>
	<g>
		<g>
			<polygon points="366.93,497.633 366.93,372.39 296.966,435.306 			"/>
			<polygon points="145.064,371.888 145.064,498.582 215.165,435.265 			"/>
			<path d="M261.91,466.837l-0.154,0.137c0,0,0,0.009-0.009,0.009l-0.043,0.043c-0.486,0.435-1.067,0.674-1.613,0.981
				c-0.367,0.205-0.683,0.503-1.067,0.649c-0.981,0.367-2.005,0.555-3.029,0.555c-1.024,0-2.057-0.188-3.029-0.555
				c-0.427-0.162-0.777-0.486-1.178-0.717c-0.512-0.299-1.058-0.521-1.51-0.93l-0.026-0.026h-0.017l-0.375-0.35l-21.965-19.857
				l-72.226,65.22h201.737l-73.199-65.212L261.91,466.837z"/>
			<path d="M210.34,358.4h-54.75l77.124,69.717c0.367,0.247,0.785,0.393,1.118,0.7l22.161,20.292l22.17-20.292
				c0.486-0.452,1.075-0.7,1.63-1.015l77.175-69.402h-55.313l64.657-212.19c26.112-30.387,33.562-70.827,18.859-103.586
				C373.011,15.531,348.444,0,317.766,0c-26.428,0-48.188,11.639-61.773,32.486C242.417,11.639,220.657,0,194.229,0
				c-30.686,0-55.245,15.531-67.405,42.624c-14.703,32.759-7.253,73.199,18.859,103.586L210.34,358.4z M339.936,174.225
				L283.812,358.4h-17.178l31.42-141.38C311.767,203.093,327.085,187.477,339.936,174.225z M241.948,245.385
				c4.343,4.386,7.202,7.279,7.936,8.03c1.604,1.655,3.806,2.586,6.11,2.586c2.304,0,4.514-0.93,6.118-2.586
				c0.734-0.751,3.593-3.644,7.927-8.03c1.621-1.638,3.482-3.516,5.453-5.513l-19.499,87.731l-19.49-87.731
				C238.475,241.869,240.335,243.746,241.948,245.385z M213.941,217.02l31.42,141.38h-17.178L172.06,174.225
				C184.902,187.477,200.228,203.093,213.941,217.02z"/>
		</g>
	</g>
</g>
<g>
</g>
<g>
</g>
<g>
</g>
<g>
</g>
<g>
</g>
<g>
</g>
<g>
</g>
<g>
</g>
<g>
</g>
<g>
</g>
<g>
</g>
<g>
</g>
<g>
</g>
<g>
</g>
<g>
</g>
</svg>
