<?xml version="1.0" standalone="no"?>
<!DOCTYPE svg PUBLIC "-//W3C//DTD SVG 20010904//EN"
 "http://www.w3.org/TR/2001/REC-SVG-20010904/DTD/svg10.dtd">
<svg version="1.0" xmlns="http://www.w3.org/2000/svg"
 width="1280.000000pt" height="311.000000pt" viewBox="0 0 1280.000000 311.000000"
 preserveAspectRatio="xMidYMid meet">

<g transform="translate(0.000000,311.000000) scale(0.100000,-0.100000)"
fill="white" stroke="none">
<path d="M3760 2980 c0 -6 26 -59 57 -117 40 -73 69 -113 92 -129 42 -28 55
-22 48 22 -4 21 -2 32 4 29 5 -4 9 -13 9 -21 0 -8 5 -14 11 -14 8 0 10 17 7
50 -6 60 -43 120 -96 155 -43 28 -132 45 -132 25z"/>
<path d="M8933 2965 c-54 -27 -97 -78 -113 -136 -12 -40 -3 -100 11 -78 7 11
9 9 9 -7 0 -11 3 -23 6 -27 11 -11 62 22 87 55 27 36 107 191 107 208 0 18
-55 10 -107 -15z"/>
<path d="M5425 2893 c-156 -33 -298 -115 -412 -237 -53 -56 -67 -66 -96 -66
-24 0 -51 -12 -91 -41 -32 -23 -55 -43 -53 -46 3 -2 27 -8 54 -13 l48 -9 -52
3 c-62 4 -65 -4 -23 -54 17 -19 30 -41 30 -49 0 -8 -19 12 -42 45 l-43 59 -7
-40 c-15 -87 -10 -133 20 -166 l28 -31 -18 -85 c-9 -47 -19 -87 -21 -90 -3 -2
-8 35 -12 84 -9 133 -9 133 -23 99 -15 -35 -32 -144 -32 -211 l0 -49 -65 107
c-220 368 -475 571 -752 602 -72 8 -171 -9 -233 -40 -49 -25 -114 -74 -107
-81 2 -3 35 10 73 28 161 75 353 37 537 -108 32 -25 57 -48 54 -50 -2 -2 -23
2 -46 11 -165 58 -302 0 -303 -129 -1 -61 36 -116 96 -146 61 -29 117 -21 163
25 28 28 33 40 33 80 0 60 -40 105 -92 104 l-33 0 42 -19 c49 -22 67 -50 59
-95 -11 -58 -74 -94 -132 -75 -78 26 -121 108 -90 169 21 39 50 58 103 67 123
19 304 -83 402 -230 26 -39 101 -161 166 -271 177 -300 243 -392 398 -554 75
-79 135 -146 132 -149 -8 -8 -149 100 -311 239 -278 237 -398 316 -584 381
-91 31 -101 33 -240 33 -137 -1 -150 -2 -239 -33 -176 -61 -230 -100 -484
-356 -125 -126 -226 -230 -224 -232 9 -9 132 81 278 203 188 157 227 184 332
233 115 53 173 65 307 64 102 0 126 -4 207 -32 153 -52 232 -99 553 -326 178
-125 263 -173 377 -211 52 -18 104 -41 115 -52 15 -16 -6 -10 -93 24 -63 25
-184 64 -269 86 -147 38 -163 40 -305 41 -172 1 -231 -12 -357 -76 -135 -69
-248 -208 -278 -344 -46 -204 31 -413 195 -528 126 -89 253 -118 402 -92 156
27 314 129 375 242 123 230 -10 507 -242 507 -39 0 -81 -7 -104 -16 -46 -20
-42 -34 5 -18 122 42 270 -38 314 -169 37 -111 4 -232 -90 -326 -88 -89 -207
-130 -349 -122 -177 11 -308 102 -366 255 -18 49 -21 74 -18 154 3 83 8 104
36 162 59 118 173 201 322 233 146 31 455 0 700 -71 214 -62 294 -102 463
-228 83 -62 222 -162 307 -222 300 -211 541 -400 548 -432 2 -8 -7 -28 -21
-46 -34 -45 -57 -92 -57 -118 0 -16 10 -7 38 37 22 32 48 67 59 77 20 18 21
17 64 -41 24 -33 49 -68 56 -78 11 -18 12 -18 12 1 1 12 -20 54 -45 95 l-46
75 49 44 c98 89 215 178 483 369 151 108 319 229 373 270 215 164 627 283 981
282 224 -1 386 -93 469 -267 29 -62 32 -77 32 -163 -1 -102 -16 -151 -72 -233
-87 -125 -292 -187 -468 -142 -136 36 -249 135 -285 251 -11 36 -20 78 -20 93
0 45 28 125 58 167 55 75 192 123 273 95 44 -15 48 -6 7 15 -107 58 -292 -17
-357 -144 -115 -226 45 -503 334 -577 76 -19 214 -19 290 0 260 68 425 344
360 600 -50 194 -195 346 -390 408 -59 19 -91 22 -210 21 -210 -2 -391 -39
-606 -124 -111 -45 -116 -46 -99 -26 6 8 48 27 93 42 143 47 267 119 501 291
305 226 504 305 724 290 174 -12 326 -88 542 -271 139 -117 300 -239 307 -233
9 9 -427 438 -483 475 -268 179 -520 199 -820 66 -122 -54 -253 -150 -519
-379 -142 -122 -186 -157 -240 -191 l-30 -19 23 30 c13 17 82 92 153 168 140
150 199 233 364 517 59 102 130 218 158 258 94 137 209 219 340 243 58 11 71
10 112 -5 87 -34 101 -132 27 -199 -46 -42 -135 -39 -167 6 -39 56 -1 140 64
140 17 0 28 4 25 9 -9 13 -63 9 -88 -7 -74 -49 -51 -166 38 -200 149 -57 285
153 170 260 -53 49 -178 55 -273 14 -24 -11 -46 -17 -48 -15 -7 6 98 86 167
126 159 94 342 105 468 28 49 -30 49 -16 1 26 -122 104 -329 111 -523 17 -198
-96 -397 -306 -557 -586 l-34 -60 -6 90 c-12 187 -48 270 -50 118 -1 -43 -4
-91 -8 -108 -6 -25 -10 -14 -25 65 -17 93 -17 94 3 110 23 17 41 59 42 98 1
26 1 26 10 -5 17 -60 100 -98 114 -53 13 40 -6 79 -59 125 -29 25 -56 45 -60
45 -3 0 -7 -19 -7 -42 -2 -34 -3 -37 -6 -13 -7 50 -20 50 -58 -4 -20 -28 -39
-51 -41 -51 -11 0 0 22 32 64 20 26 34 49 32 50 -1 2 -27 0 -55 -3 -29 -4 -53
-4 -53 1 0 4 17 8 38 8 62 0 69 13 25 47 -52 41 -77 53 -109 53 -20 0 -50 22
-119 88 -97 92 -166 139 -267 179 -307 125 -723 15 -983 -259 -34 -35 -73 -79
-88 -98 -25 -31 -29 -33 -38 -17 -24 40 -120 145 -172 187 -240 192 -542 277
-792 223z m530 -168 c83 -22 208 -83 281 -138 65 -50 144 -130 144 -147 0 -6
-14 -37 -30 -70 -37 -73 -23 -81 16 -10 15 28 32 49 38 47 10 -3 49 -64 59
-92 3 -5 7 -7 11 -4 4 4 -7 35 -24 68 l-31 61 28 36 c78 99 265 214 405 248
258 63 533 -7 723 -186 147 -137 237 -345 234 -541 l0 -62 -23 82 c-64 235
-206 393 -352 393 -54 0 -104 -13 -104 -28 0 -4 18 -6 40 -4 68 7 106 -6 159
-54 201 -181 215 -548 35 -906 -43 -87 -168 -288 -178 -288 -3 0 0 15 5 33 65
223 -2 436 -163 516 -98 50 -188 39 -264 -31 -51 -47 -68 -92 -62 -160 8 -82
75 -148 150 -148 71 0 118 40 117 100 l0 35 -12 -35 c-9 -25 -23 -40 -51 -54
-36 -17 -43 -18 -79 -5 -55 19 -82 59 -81 115 2 81 71 144 157 144 170 0 274
-185 237 -424 -14 -95 -51 -210 -77 -238 -10 -12 -160 -136 -333 -276 -173
-141 -362 -302 -420 -358 l-105 -102 -100 96 c-55 54 -237 208 -405 344 -168
136 -319 260 -337 275 -60 53 -103 200 -103 357 0 144 36 228 124 291 31 23
53 30 101 33 71 4 118 -17 153 -68 54 -80 -4 -200 -97 -200 -44 0 -75 23 -96
70 l-16 35 5 -40 c11 -85 113 -124 194 -75 123 75 97 262 -46 327 -132 61
-282 -9 -355 -166 -40 -85 -49 -217 -22 -317 10 -36 15 -67 12 -70 -8 -9 -138
206 -194 322 -75 157 -105 277 -107 429 0 87 4 138 17 185 38 140 101 238 183
286 37 22 54 25 104 22 65 -3 74 2 35 20 -42 19 -130 15 -182 -10 -107 -50
-211 -202 -254 -370 l-19 -73 4 100 c3 55 12 127 21 160 71 268 294 467 595
531 80 17 250 11 335 -11z"/>
<path d="M5556 2355 c18 -15 18 -15 -8 -9 -23 5 -28 3 -28 -13 0 -39 23 -89
67 -146 24 -32 53 -76 65 -98 22 -44 34 -42 54 7 27 64 10 156 -38 215 -21 26
-81 59 -107 59 -24 0 -24 0 -5 -15z"/>
<path d="M7184 2351 c-48 -29 -83 -82 -96 -144 -11 -50 -10 -62 8 -103 23 -57
38 -65 52 -27 5 15 35 62 65 103 73 99 95 180 45 167 -16 -4 -17 -3 -7 9 18
22 -29 18 -67 -5z"/>
<path d="M5450 2335 c-15 -18 -40 -100 -40 -132 0 -32 16 -29 56 11 29 29 34
41 34 79 0 32 -5 47 -16 51 -21 8 -20 8 -34 -9z"/>
<path d="M7312 2338 c-29 -29 -3 -109 47 -144 40 -28 42 -14 16 103 -5 22 -31
53 -44 53 -4 0 -12 -5 -19 -12z"/>
<path d="M5471 1835 c-18 -66 28 -154 67 -128 10 6 16 21 14 34 -4 34 -49 129
-61 129 -6 0 -14 -16 -20 -35z"/>
<path d="M7276 1812 c-15 -32 -26 -69 -24 -83 7 -55 71 -20 84 46 6 34 -10 95
-25 95 -4 0 -20 -26 -35 -58z"/>
<path d="M5618 1840 c-51 -40 -62 -115 -16 -108 16 2 31 19 50 58 15 30 28 58
28 63 0 14 -38 7 -62 -13z"/>
<path d="M7130 1848 c0 -7 11 -37 25 -65 18 -39 30 -53 45 -53 42 0 38 64 -7
106 -28 26 -63 32 -63 12z"/>
<path d="M5693 1776 c-41 -36 -20 -53 36 -30 45 18 51 28 22 44 -26 13 -26 14
-58 -14z"/>
<path d="M7045 1786 c-18 -13 -16 -15 23 -35 43 -22 62 -21 62 4 0 15 -37 45
-55 45 -6 0 -20 -6 -30 -14z"/>
<path d="M5807 1723 c-12 -12 -7 -21 15 -26 29 -8 42 1 27 19 -12 15 -31 18
-42 7z"/>
<path d="M6956 1717 c-18 -13 -18 -14 -2 -20 21 -8 59 10 51 24 -9 13 -28 11
-49 -4z"/>
<path d="M5427 1703 c-12 -11 25 -43 50 -43 25 0 30 12 11 28 -19 14 -53 23
-61 15z"/>
<path d="M7330 1692 c-13 -11 -20 -24 -16 -30 10 -16 66 13 66 33 0 20 -23 19
-50 -3z"/>
<path d="M5669 1579 c-11 -11 -19 -28 -17 -37 4 -19 27 -20 78 -2 19 7 41 15
49 17 11 3 10 7 -4 23 -24 27 -79 26 -106 -1z"/>
<path d="M7038 1589 c-24 -13 -23 -39 1 -39 10 0 35 -7 55 -15 41 -17 56 -13
56 15 0 39 -71 64 -112 39z"/>
<path d="M4099 2870 c-60 -32 -126 -120 -89 -120 5 0 7 -6 4 -14 -7 -19 28
-30 70 -22 17 3 63 25 101 47 39 23 85 48 103 55 17 8 32 19 32 24 0 5 -18 19
-40 30 -51 26 -132 26 -181 0z"/>
<path d="M8523 2869 c-24 -12 -43 -24 -43 -28 0 -4 28 -21 63 -39 34 -18 83
-44 108 -58 61 -33 126 -43 135 -20 3 9 0 24 -7 34 -13 15 -12 16 4 3 15 -12
17 -11 17 7 0 30 -44 77 -93 101 -57 27 -129 27 -184 0z"/>
<path d="M1080 2870 c0 -5 12 -12 28 -16 78 -18 101 -26 143 -53 26 -16 50
-34 54 -41 4 -6 -12 0 -35 15 -24 15 -68 36 -98 46 -99 34 -129 21 -97 -43 34
-65 65 -96 172 -168 59 -40 127 -91 151 -114 55 -53 64 -41 59 74 -3 67 -9 96
-30 136 -53 104 -169 174 -287 174 -33 0 -60 -4 -60 -10z"/>
<path d="M11535 2856 c-139 -65 -228 -242 -185 -371 l12 -37 30 36 c16 19 75
65 131 102 56 36 117 81 135 98 41 38 96 132 86 147 -12 20 -92 3 -167 -34
-40 -20 -73 -34 -75 -33 -1 2 19 17 45 34 45 28 81 42 146 56 50 12 28 26 -40
26 -50 0 -81 -6 -118 -24z"/>
<path d="M788 2860 c-115 -20 -220 -67 -325 -146 -245 -186 -378 -516 -359
-894 41 -867 907 -1476 1821 -1281 159 34 408 121 392 138 -3 3 -59 -9 -124
-25 -230 -60 -281 -66 -513 -66 -231 0 -312 10 -484 59 -389 113 -722 386
-889 729 -154 314 -168 693 -38 996 48 113 101 191 182 271 119 119 249 180
434 202 75 9 93 13 70 18 -41 9 -110 8 -167 -1z"/>
<path d="M11845 2860 c-26 -7 -24 -8 20 -9 137 -4 278 -48 381 -119 383 -260
492 -876 244 -1372 -60 -121 -143 -234 -250 -340 -212 -212 -467 -346 -780
-411 -101 -21 -142 -24 -330 -24 -229 0 -314 11 -510 62 -133 35 -147 37 -135
25 15 -16 159 -71 268 -103 532 -155 1106 -36 1487 308 246 222 394 485 445
792 25 148 17 379 -18 512 -96 367 -323 610 -629 673 -81 17 -143 19 -193 6z"/>
<path d="M3733 2814 c-24 -10 -13 -30 26 -52 49 -28 81 -29 81 -2 0 31 -73 68
-107 54z"/>
<path d="M9004 2806 c-46 -20 -57 -66 -17 -66 20 0 103 48 103 59 0 5 -10 11
-22 15 -29 7 -27 8 -64 -8z"/>
<path d="M968 2764 c-18 -42 -19 -58 -13 -170 5 -76 12 -124 18 -124 6 0 29
19 52 43 69 73 83 175 34 254 -24 38 -39 43 -32 11 4 -20 2 -19 -12 5 -8 15
-18 27 -21 27 -3 0 -14 -21 -26 -46z"/>
<path d="M11757 2783 c-42 -47 -50 -150 -16 -220 19 -40 83 -102 94 -91 3 2 8
63 11 134 6 110 4 134 -10 162 -16 31 -46 44 -46 20 0 -10 -2 -10 -8 0 -7 10
-12 8 -25 -5z"/>
<path d="M4670 2731 c-25 -47 7 -144 62 -189 13 -10 16 -6 22 34 12 89 8 123
-19 149 -29 30 -51 32 -65 6z"/>
<path d="M8077 2738 c-28 -22 -39 -68 -31 -135 3 -35 10 -65 14 -68 4 -3 25
20 46 51 30 43 38 65 38 95 -2 60 -30 84 -67 57z"/>
<path d="M3250 2704 c-19 -50 -12 -101 19 -136 16 -18 41 -48 57 -65 16 -18
32 -33 36 -33 14 0 9 149 -6 184 -14 35 -59 76 -83 76 -7 0 -18 -12 -23 -26z"/>
<path d="M9492 2715 c-39 -28 -54 -71 -54 -156 -1 -44 1 -82 4 -85 10 -9 116
115 122 144 8 35 -14 106 -34 110 -8 1 -25 -5 -38 -13z"/>
<path d="M3458 2699 c-21 -11 -44 -32 -52 -47 -14 -27 -27 -190 -14 -184 4 2
28 22 53 45 60 54 89 108 81 152 -10 49 -25 56 -68 34z"/>
<path d="M4810 2693 c-26 -24 -32 -39 -41 -97 -5 -38 -7 -71 -5 -73 5 -5 44
26 93 74 28 26 33 38 33 77 0 42 -2 46 -25 46 -14 0 -38 -12 -55 -27z"/>
<path d="M7917 2713 c-13 -12 -7 -58 11 -90 9 -17 39 -48 66 -68 l49 -37 -7
63 c-4 34 -14 75 -21 89 -19 36 -79 63 -98 43z"/>
<path d="M9290 2700 c-17 -32 -12 -92 12 -124 12 -17 43 -51 70 -75 l48 -44 0
64 c0 111 -26 163 -92 188 -23 9 -29 7 -38 -9z"/>
<path d="M8203 2648 c-29 -8 -91 -67 -115 -112 -10 -18 -7 -18 48 -11 33 4 72
14 87 22 28 14 63 76 52 92 -8 14 -38 18 -72 9z"/>
<path d="M4530 2630 c0 -32 26 -75 53 -87 29 -14 137 -28 137 -19 0 14 -72
101 -93 113 -12 7 -39 12 -59 13 -32 0 -38 -3 -38 -20z"/>
<path d="M3105 2586 c-18 -13 -18 -15 8 -58 15 -26 38 -50 54 -56 29 -11 173
-23 173 -14 0 3 -20 28 -45 57 -65 77 -143 106 -190 71z"/>
<path d="M9579 2577 c-39 -24 -127 -116 -113 -118 42 -5 154 6 177 17 30 16
67 68 67 95 0 34 -80 38 -131 6z"/>
<path d="M454 2551 c-33 -20 -110 -108 -102 -117 3 -2 21 5 39 17 19 11 56 35
84 53 55 35 71 66 33 66 -13 0 -37 -9 -54 -19z"/>
<path d="M3467 2513 c-34 -31 -63 -61 -65 -65 -2 -4 34 -8 80 -8 94 0 136 18
162 69 15 28 15 31 -6 45 -12 9 -42 16 -65 16 -38 0 -50 -6 -106 -57z"/>
<path d="M9174 2560 c-32 -13 -35 -23 -14 -56 31 -47 74 -64 162 -64 43 0 78
4 78 8 0 10 -76 83 -110 106 -26 17 -81 20 -116 6z"/>
<path d="M12277 2563 c-17 -17 -4 -28 136 -112 57 -34 46 -6 -23 61 -55 54
-93 71 -113 51z"/>
<path d="M4517 2489 l-31 -32 23 -18 c41 -33 96 -25 160 23 l56 43 -40 7 c-22
4 -62 7 -88 7 -41 1 -53 -4 -80 -30z"/>
<path d="M8123 2513 c-18 -2 -33 -8 -33 -12 0 -10 82 -68 114 -81 20 -7 37 -6
66 6 42 17 47 28 27 55 -28 36 -73 44 -174 32z"/>
<path d="M4671 2445 c-62 -49 -73 -68 -69 -118 3 -38 5 -42 28 -39 33 5 78 48
84 81 14 72 17 111 9 111 -4 0 -28 -16 -52 -35z"/>
<path d="M12289 2444 c-14 -17 -18 -14 51 -50 30 -16 92 -65 138 -108 67 -64
81 -74 72 -50 -19 49 -48 89 -98 136 -74 69 -141 99 -163 72z"/>
<path d="M425 2429 c-58 -31 -119 -94 -154 -159 -17 -32 -31 -61 -31 -65 0 -4
27 22 61 59 38 41 91 84 140 113 43 26 79 53 79 60 0 20 -51 15 -95 -8z"/>
<path d="M3143 2425 c-28 -12 -63 -58 -63 -83 0 -13 47 -32 81 -32 42 0 76 20
134 79 l49 51 -84 0 c-50 -1 -98 -7 -117 -15z"/>
<path d="M9470 2431 c0 -16 111 -111 136 -117 33 -8 94 2 111 18 19 19 -18 75
-62 94 -38 15 -185 20 -185 5z"/>
<path d="M3395 2419 c-5 -8 104 -114 132 -128 28 -14 72 -13 100 2 l23 13 -20
39 c-11 22 -30 46 -42 54 -23 15 -186 32 -193 20z"/>
<path d="M9319 2420 c-86 -6 -122 -24 -146 -76 -22 -45 -8 -59 55 -59 34 0 56
6 76 22 39 31 108 111 99 115 -5 2 -42 1 -84 -2z"/>
<path d="M3289 2363 c-31 -32 -62 -68 -68 -80 -24 -46 -7 -113 29 -113 30 0
89 57 95 93 4 18 5 60 3 95 l-3 63 -56 -58z"/>
<path d="M3370 2330 c0 -93 16 -134 65 -166 23 -15 28 -15 41 -2 23 23 29 90
11 124 -9 16 -38 51 -66 79 l-51 49 0 -84z"/>
<path d="M9383 2367 c-22 -23 -47 -53 -57 -67 -19 -30 -21 -109 -3 -135 13
-17 15 -17 44 0 47 28 65 67 69 156 3 42 0 80 -4 83 -5 3 -27 -14 -49 -37z"/>
<path d="M9453 2336 c6 -86 26 -130 67 -151 55 -29 70 -17 70 57 0 35 -7 47
-62 104 -33 35 -66 64 -71 64 -6 0 -8 -28 -4 -74z"/>
<path d="M2635 2375 c12 -54 37 -96 81 -133 32 -26 46 -46 50 -72 13 -69 79
-104 117 -62 36 39 7 93 -55 106 -30 6 -30 7 -14 25 28 30 61 33 128 10 73
-24 145 -26 185 -6 26 14 25 15 -37 10 -50 -3 -79 0 -124 16 -86 30 -131 28
-167 -9 -23 -22 -35 -28 -47 -21 -30 16 -73 68 -99 118 -18 37 -23 41 -18 18z
m223 -201 c27 -18 28 -40 2 -54 -35 -19 -70 12 -70 61 0 16 4 19 23 14 12 -4
32 -13 45 -21z"/>
<path d="M10134 2332 c-17 -31 -45 -67 -63 -79 l-33 -23 -28 30 c-35 37 -88
40 -176 9 -44 -15 -74 -19 -119 -16 -54 5 -58 4 -41 -9 34 -24 105 -22 190 7
47 16 64 18 91 9 49 -16 50 -35 4 -53 -51 -20 -69 -56 -45 -92 17 -26 53 -33
85 -15 18 9 34 42 45 92 4 15 19 34 36 44 33 20 60 55 79 101 23 57 7 54 -25
-5z m-122 -163 c-4 -35 -35 -63 -61 -54 -26 8 -27 36 -3 57 38 34 68 32 64 -3z"/>
<path d="M451 2319 c-80 -32 -166 -130 -200 -229 -23 -67 -36 -150 -23 -150 5
0 12 17 15 38 15 89 87 191 202 282 75 60 78 88 6 59z"/>
<path d="M12300 2316 c0 -7 28 -34 63 -60 88 -64 153 -152 193 -259 l23 -62 0
40 c1 52 -38 160 -77 218 -59 86 -202 173 -202 123z"/>
<path d="M3146 2228 c-11 -15 -16 -44 -16 -85 0 -97 -27 -133 -101 -133 -18 0
-28 -4 -24 -10 11 -18 81 -11 108 11 29 22 51 86 42 121 -3 13 -2 44 4 68 12
53 9 59 -13 28z"/>
<path d="M9644 2203 c3 -21 6 -62 6 -91 0 -48 4 -58 34 -88 26 -26 42 -34 69
-34 20 0 39 5 42 10 4 6 -7 10 -25 10 -67 0 -102 47 -99 133 2 58 -7 97 -23
97 -7 0 -8 -14 -4 -37z"/>
<path d="M4230 2200 c0 -5 5 -10 10 -10 6 0 10 5 10 10 0 6 -4 10 -10 10 -5 0
-10 -4 -10 -10z"/>
<path d="M8555 2200 c-3 -5 -1 -10 4 -10 6 0 11 5 11 10 0 6 -2 10 -4 10 -3 0
-8 -4 -11 -10z"/>
<path d="M8516 2181 c-4 -5 -2 -12 3 -15 5 -4 12 -2 15 3 4 5 2 12 -3 15 -5 4
-12 2 -15 -3z"/>
<path d="M4270 2170 c0 -5 5 -10 10 -10 6 0 10 5 10 10 0 6 -4 10 -10 10 -5 0
-10 -4 -10 -10z"/>
<path d="M4307 2154 c-8 -8 1 -24 14 -24 5 0 9 7 9 15 0 15 -12 20 -23 9z"/>
<path d="M8477 2154 c-8 -8 1 -24 14 -24 5 0 9 7 9 15 0 15 -12 20 -23 9z"/>
<path d="M4346 2123 c-11 -11 -6 -23 9 -23 8 0 15 4 15 9 0 13 -16 22 -24 14z"/>
<path d="M8446 2123 c-11 -11 -6 -23 9 -23 8 0 15 4 15 9 0 13 -16 22 -24 14z"/>
<path d="M3555 2110 c-18 -7 -15 -12 32 -59 61 -59 93 -67 93 -22 0 20 -9 37
-31 55 -17 14 -34 26 -39 26 -5 0 -14 2 -22 4 -7 3 -22 1 -33 -4z"/>
<path d="M3820 2105 c-86 -39 -136 -130 -95 -172 21 -20 50 -12 121 36 96 65
151 117 138 131 -19 20 -124 23 -164 5z"/>
<path d="M8838 2108 c-36 -13 -35 -22 5 -50 17 -12 59 -44 91 -70 33 -26 75
-53 94 -59 30 -10 37 -9 54 9 18 17 19 24 9 54 -13 40 -74 102 -114 117 -35
13 -102 13 -139 -1z"/>
<path d="M9183 2105 c-36 -15 -66 -56 -61 -82 6 -34 37 -25 90 26 44 42 50 53
38 61 -19 13 -28 12 -67 -5z"/>
<path d="M4370 2075 c0 -8 7 -15 15 -15 8 0 15 7 15 15 0 8 -7 15 -15 15 -8 0
-15 -7 -15 -15z"/>
<path d="M8407 2084 c-8 -8 1 -24 14 -24 5 0 9 7 9 15 0 15 -12 20 -23 9z"/>
<path d="M4406 2053 c-12 -12 -6 -33 9 -33 8 0 15 6 15 14 0 17 -14 28 -24 19z"/>
<path d="M8374 2049 c-10 -17 13 -36 27 -22 12 12 4 33 -11 33 -5 0 -12 -5
-16 -11z"/>
<path d="M4424 2009 c-10 -17 13 -36 27 -22 12 12 4 33 -11 33 -5 0 -12 -5
-16 -11z"/>
<path d="M8344 2009 c-10 -17 13 -36 27 -22 12 12 4 33 -11 33 -5 0 -12 -5
-16 -11z"/>
<path d="M555 1986 c-171 -80 -273 -348 -220 -574 14 -60 82 -209 91 -200 2 3
-9 37 -26 76 -56 132 -59 269 -9 411 73 210 269 301 390 180 85 -85 70 -224
-28 -265 -88 -37 -172 51 -128 135 9 18 23 35 31 38 24 9 16 23 -13 23 -52 -1
-103 -66 -103 -131 0 -48 35 -111 77 -139 55 -38 142 -36 208 5 131 81 143
299 22 401 -81 68 -198 84 -292 40z"/>
<path d="M12025 1991 c-84 -38 -155 -150 -155 -243 0 -126 101 -237 215 -238
54 0 124 37 152 79 48 72 21 183 -52 218 -51 24 -64 6 -25 -35 83 -88 -11
-202 -125 -150 -60 27 -88 135 -52 204 81 155 276 135 394 -41 81 -120 93
-345 28 -501 -23 -55 -10 -53 18 3 57 111 74 230 53 353 -28 156 -120 297
-230 348 -59 28 -163 30 -221 3z"/>
<path d="M3514 1991 c-78 -19 -154 -101 -154 -164 0 -31 5 -32 51 -13 19 7 73
19 122 26 57 8 98 20 119 34 55 37 49 47 -42 75 l-35 10 35 -5 c19 -3 45 -8
58 -11 36 -8 25 13 -15 30 -49 21 -100 28 -139 18z"/>
<path d="M9193 1990 c-18 -4 -45 -16 -60 -26 -24 -16 -25 -19 -10 -22 17 -4
17 -4 1 -16 -9 -7 -14 -18 -10 -25 15 -24 88 -51 163 -61 43 -6 97 -18 121
-26 24 -9 46 -13 49 -10 4 3 1 25 -6 48 -18 58 -84 121 -144 136 -51 13 -58
13 -104 2z m40 -37 c-7 -2 -19 -2 -25 0 -7 3 -2 5 12 5 14 0 19 -2 13 -5z
m-50 -10 c-7 -2 -19 -2 -25 0 -7 3 -2 5 12 5 14 0 19 -2 13 -5z"/>
<path d="M4454 1969 c-10 -17 13 -36 27 -22 12 12 4 33 -11 33 -5 0 -12 -5
-16 -11z"/>
<path d="M8320 1960 c0 -11 6 -20 13 -20 19 0 27 10 20 26 -8 21 -33 17 -33
-6z"/>
<path d="M4475 1931 c-3 -5 4 -25 15 -43 11 -18 24 -43 30 -55 5 -13 14 -23
20 -23 21 0 21 28 0 61 -11 19 -23 42 -26 52 -7 18 -29 23 -39 8z"/>
<path d="M8293 1923 c-4 -10 -11 -21 -15 -24 -5 -3 -10 -13 -12 -21 -1 -9 -8
-23 -16 -32 -9 -12 -10 -20 -2 -28 12 -12 32 -2 32 17 0 7 7 15 15 19 8 3 15
14 15 25 0 11 5 21 12 23 14 5 3 38 -12 38 -6 0 -14 -8 -17 -17z"/>
<path d="M4550 1796 c0 -8 4 -17 9 -20 11 -7 33 18 24 27 -12 12 -33 7 -33 -7z"/>
<path d="M8223 1790 c3 -13 0 -20 -9 -20 -16 0 -19 -26 -4 -35 6 -3 14 5 19
18 6 14 15 27 22 29 17 6 2 28 -18 28 -10 0 -14 -6 -10 -20z"/>
<path d="M4574 1759 c-10 -17 13 -36 27 -22 12 12 4 33 -11 33 -5 0 -12 -5
-16 -11z"/>
<path d="M4602 1714 c4 -21 22 -23 26 -1 2 10 -3 17 -13 17 -10 0 -15 -6 -13
-16z"/>
<path d="M8175 1719 c-10 -15 1 -23 20 -15 9 3 13 10 10 16 -8 13 -22 13 -30
-1z"/>
<path d="M4630 1676 c0 -9 7 -16 16 -16 17 0 14 22 -4 28 -7 2 -12 -3 -12 -12z"/>
<path d="M8150 1675 c0 -9 5 -15 11 -13 6 2 11 8 11 13 0 5 -5 11 -11 13 -6 2
-11 -4 -11 -13z"/>
<path d="M4660 1635 c0 -9 5 -15 11 -13 6 2 11 8 11 13 0 5 -5 11 -11 13 -6 2
-11 -4 -11 -13z"/>
<path d="M8120 1635 c0 -9 5 -15 11 -13 6 2 11 8 11 13 0 5 -5 11 -11 13 -6 2
-11 -4 -11 -13z"/>
<path d="M1588 1630 c-102 -31 -148 -108 -148 -245 1 -91 13 -144 56 -233 85
-176 280 -315 501 -358 134 -25 355 -11 468 31 12 5 4 -9 -23 -35 -100 -102
-142 -272 -92 -375 14 -28 38 -56 61 -72 75 -49 194 -14 213 63 9 34 -18 92
-49 106 -36 16 -41 5 -11 -25 33 -33 33 -61 1 -92 -44 -45 -115 -23 -150 45
-34 66 -7 213 60 324 48 80 47 89 -12 82 -27 -3 -106 -8 -178 -12 -109 -5
-146 -3 -230 15 -279 57 -466 207 -535 430 -40 126 -16 252 53 287 116 60 281
-71 247 -196 -15 -55 -52 -84 -106 -85 -45 0 -57 -8 -28 -19 29 -11 69 -6 101
14 107 65 79 250 -50 324 -48 27 -110 39 -149 26z"/>
<path d="M11119 1626 c-63 -17 -105 -49 -139 -109 -53 -92 -35 -190 42 -237
34 -20 64 -25 92 -14 26 10 18 21 -13 16 -61 -9 -121 50 -121 118 0 36 23 96
48 123 51 56 166 76 216 36 127 -100 50 -393 -147 -557 -161 -134 -403 -192
-677 -162 -66 7 -123 10 -127 6 -4 -3 3 -23 16 -44 65 -107 85 -165 89 -253 3
-66 1 -93 -12 -117 -18 -34 -62 -62 -98 -62 -67 0 -93 78 -42 125 24 22 25 25
7 25 -10 0 -29 -9 -40 -20 -62 -57 -28 -160 59 -179 72 -16 136 16 178 90 21
36 25 57 25 119 0 64 -5 85 -32 142 -17 37 -52 88 -78 114 -38 38 -43 46 -24
40 127 -36 162 -40 309 -41 135 0 164 3 230 23 208 66 349 182 430 357 101
215 61 423 -87 464 -45 13 -46 13 -104 -3z"/>
<path d="M4690 1600 c0 -5 7 -10 15 -10 8 0 15 5 15 10 0 6 -7 10 -15 10 -8 0
-15 -4 -15 -10z"/>
<path d="M8090 1600 c0 -5 5 -10 10 -10 6 0 10 5 10 10 0 6 -4 10 -10 10 -5 0
-10 -4 -10 -10z"/>
<path d="M3935 1571 c-90 -26 -143 -57 -213 -125 -115 -109 -164 -212 -247
-516 -31 -109 -69 -231 -86 -272 -60 -141 -150 -248 -256 -306 -79 -43 -42
-40 45 3 130 65 237 207 305 405 14 41 47 141 72 222 102 328 224 479 432 533
104 27 325 12 447 -30 86 -30 72 -12 -29 38 -38 20 -98 42 -131 51 -84 22
-260 20 -339 -3z"/>
<path d="M8512 1564 c-88 -26 -176 -66 -188 -85 -5 -9 0 -10 17 -5 165 48 219
58 324 58 87 0 123 -4 173 -21 120 -41 203 -108 282 -227 56 -85 89 -168 165
-409 80 -254 138 -363 243 -456 48 -42 142 -92 197 -103 17 -4 -1 9 -42 29
-53 26 -88 53 -136 105 -99 107 -150 222 -222 495 -69 263 -125 385 -225 486
-108 109 -238 159 -410 158 -70 0 -116 -6 -178 -25z"/>
<path d="M4730 1570 c0 -5 5 -10 10 -10 6 0 10 5 10 10 0 6 -4 10 -10 10 -5 0
-10 -4 -10 -10z"/>
<path d="M8056 1571 c-4 -5 -2 -12 3 -15 5 -4 12 -2 15 3 4 5 2 12 -3 15 -5 4
-12 2 -15 -3z"/>
<path d="M8020 1540 c0 -5 5 -10 11 -10 5 0 7 5 4 10 -3 6 -8 10 -11 10 -2 0
-4 -4 -4 -10z"/>
<path d="M2633 1514 c-24 -37 -30 -142 -10 -180 15 -28 160 -184 171 -184 3 0
6 53 6 118 0 109 -2 123 -27 172 -22 42 -38 60 -72 77 -24 13 -46 23 -47 23
-2 0 -11 -12 -21 -26z"/>
<path d="M10115 1523 c-91 -48 -109 -87 -111 -245 -1 -71 2 -128 6 -128 3 0
39 33 78 74 111 114 130 177 86 282 -16 39 -18 39 -59 17z"/>
<path d="M2954 1496 c-95 -44 -124 -108 -124 -271 0 -47 2 -85 5 -85 3 0 45
39 94 88 106 104 122 138 102 227 -7 30 -16 57 -20 59 -4 3 -30 -5 -57 -18z"/>
<path d="M1610 1503 c-56 -21 -81 -86 -56 -146 14 -35 57 -60 74 -43 7 8 10
196 2 195 -3 0 -12 -3 -20 -6z"/>
<path d="M9773 1459 c-13 -62 -3 -108 31 -157 26 -37 149 -153 163 -152 3 0 6
48 4 108 -3 136 -20 179 -87 222 -26 16 -60 30 -75 30 -24 0 -27 -5 -36 -51z"/>
<path d="M11166 1501 c-4 -5 -2 -21 4 -35 6 -16 6 -44 1 -73 -15 -79 16 -107
64 -58 43 42 30 126 -25 158 -32 20 -37 20 -44 8z"/>
<path d="M4207 1474 c-14 -14 -7 -35 11 -32 9 2 17 10 17 17 0 16 -18 25 -28
15z"/>
<path d="M4256 1471 c-7 -11 18 -33 27 -24 4 3 7 12 7 20 0 15 -26 18 -34 4z"/>
<path d="M4317 1474 c-13 -13 -7 -24 14 -24 11 0 19 5 17 12 -5 14 -22 21 -31
12z"/>
<path d="M8465 1470 c-4 -6 -3 -16 3 -22 6 -6 12 -6 17 2 4 6 3 16 -3 22 -6 6
-12 6 -17 -2z"/>
<path d="M8514 1469 c-8 -14 18 -31 30 -19 9 9 0 30 -14 30 -5 0 -12 -5 -16
-11z"/>
<path d="M8577 1474 c-14 -14 -7 -35 11 -32 9 2 17 10 17 17 0 16 -18 25 -28
15z"/>
<path d="M4144 1459 c-9 -15 11 -33 30 -26 9 4 13 13 10 22 -7 17 -30 20 -40
4z"/>
<path d="M4372 1458 c6 -18 28 -21 28 -4 0 9 -7 16 -16 16 -9 0 -14 -5 -12
-12z"/>
<path d="M8410 1455 c0 -8 5 -15 10 -15 6 0 10 7 10 15 0 8 -4 15 -10 15 -5 0
-10 -7 -10 -15z"/>
<path d="M8625 1460 c-8 -14 3 -30 21 -30 8 0 14 9 14 20 0 21 -24 28 -35 10z"/>
<path d="M12 1452 c-9 -6 0 -21 37 -55 52 -49 95 -67 114 -48 16 16 -2 60 -33
82 -29 21 -99 34 -118 21z"/>
<path d="M4093 1444 c-8 -21 13 -42 28 -27 13 13 5 43 -11 43 -6 0 -13 -7 -17
-16z"/>
<path d="M4430 1445 c0 -8 5 -15 10 -15 6 0 10 7 10 15 0 8 -4 15 -10 15 -5 0
-10 -7 -10 -15z"/>
<path d="M8356 1451 c-4 -5 -2 -12 3 -15 5 -4 12 -2 15 3 4 5 2 12 -3 15 -5 4
-12 2 -15 -3z"/>
<path d="M8674 1445 c-7 -18 3 -35 21 -35 15 0 28 27 19 41 -8 14 -34 11 -40
-6z"/>
<path d="M12704 1446 c-33 -15 -74 -60 -74 -83 0 -41 66 -22 132 38 34 33 40
42 28 49 -21 13 -49 12 -86 -4z"/>
<path d="M4034 1425 c-4 -9 -13 -14 -20 -11 -8 3 -20 -3 -26 -14 -7 -11 -21
-20 -30 -20 -11 0 -18 -8 -18 -20 0 -23 31 -41 38 -21 2 7 15 16 28 21 13 5
24 16 24 23 0 8 10 13 23 13 16 -1 22 5 22 19 0 24 -33 33 -41 10z"/>
<path d="M4480 1430 c0 -5 7 -10 15 -10 8 0 15 5 15 10 0 6 -7 10 -15 10 -8 0
-15 -4 -15 -10z"/>
<path d="M8300 1430 c0 -5 5 -10 10 -10 6 0 10 5 10 10 0 6 -4 10 -10 10 -5 0
-10 -4 -10 -10z"/>
<path d="M8727 1427 c-8 -20 9 -41 26 -34 10 4 17 -2 20 -15 7 -27 41 -20 45
10 3 21 -5 26 -34 23 -7 -1 -14 5 -18 14 -7 19 -32 20 -39 2z"/>
<path d="M8823 1364 c-3 -8 -1 -20 6 -27 14 -14 47 15 37 32 -10 16 -36 13
-43 -5z"/>
<path d="M2422 1326 c-30 -10 -33 -13 -28 -41 9 -42 55 -105 95 -129 26 -15
61 -21 150 -26 64 -4 119 -5 123 -3 14 7 -157 175 -197 194 -44 20 -92 22
-143 5z"/>
<path d="M3900 1320 c0 -13 7 -20 20 -20 13 0 20 7 20 20 0 13 -7 20 -20 20
-13 0 -20 -7 -20 -20z"/>
<path d="M8865 1330 c-4 -7 -3 -16 3 -22 14 -14 45 -2 40 15 -6 16 -34 21 -43
7z"/>
<path d="M10251 1328 c-23 -6 -63 -39 -123 -101 -48 -50 -88 -94 -88 -97 0 -9
189 0 232 11 47 12 94 51 118 100 30 58 26 74 -19 87 -45 14 -73 14 -120 0z"/>
<path d="M79 1287 c-31 -21 -60 -79 -46 -93 8 -8 157 63 157 75 0 17 -31 41
-54 41 -13 0 -38 -10 -57 -23z"/>
<path d="M12638 1299 c-10 -5 -18 -18 -18 -28 0 -16 31 -33 142 -79 12 -5 10
33 -3 62 -11 24 -63 56 -91 56 -7 0 -21 -5 -30 -11z"/>
<path d="M3057 1286 c-22 -8 -51 -25 -65 -37 -62 -54 -142 -134 -142 -142 0
-5 57 -7 128 -5 155 4 195 21 236 94 14 26 26 50 26 54 0 12 -63 39 -106 45
-22 3 -55 -1 -77 -9z"/>
<path d="M3865 1291 c-8 -15 3 -31 21 -31 9 0 14 7 12 17 -4 20 -24 28 -33 14z"/>
<path d="M8905 1291 c-8 -15 3 -31 21 -31 9 0 14 7 12 17 -4 20 -24 28 -33 14z"/>
<path d="M9627 1286 c-62 -23 -67 -31 -46 -73 45 -88 103 -113 266 -113 57 0
103 3 103 8 0 14 -144 150 -176 166 -47 23 -104 28 -147 12z"/>
<path d="M3834 1239 c-8 -14 11 -33 25 -25 16 10 13 36 -3 36 -8 0 -18 -5 -22
-11z"/>
<path d="M8936 1242 c-8 -13 11 -35 23 -28 16 10 14 36 -3 36 -8 0 -17 -4 -20
-8z"/>
<path d="M178 1210 c-50 -30 -85 -148 -67 -228 16 -73 79 -157 79 -107 0 9 16
57 35 106 36 95 44 163 25 215 -10 26 -11 26 -30 9 -10 -9 -28 -36 -39 -59
-12 -22 -21 -35 -21 -28 0 7 12 33 26 58 26 44 24 52 -8 34z"/>
<path d="M12550 1179 c-17 -49 -8 -101 41 -233 l32 -90 27 32 c69 83 64 229
-12 310 -33 35 -54 29 -28 -9 12 -16 20 -32 17 -35 -2 -3 -15 11 -27 30 -12
20 -25 36 -29 36 -4 0 -14 -18 -21 -41z"/>
<path d="M3812 1184 c4 -21 22 -23 26 -1 2 10 -3 17 -13 17 -10 0 -15 -6 -13
-16z"/>
<path d="M8964 1189 c-10 -17 13 -36 27 -22 12 12 4 33 -11 33 -5 0 -12 -5
-16 -11z"/>
<path d="M2068 1140 c70 -32 111 -69 153 -142 51 -88 98 -120 181 -126 74 -6
73 13 -1 20 -57 6 -111 41 -142 92 l-19 31 26 7 c64 17 84 74 38 105 -24 15
-29 15 -53 2 -14 -8 -30 -24 -35 -35 -9 -21 -10 -21 -55 11 -44 31 -101 56
-125 54 -6 0 8 -9 32 -19z m227 -60 c0 -19 -6 -26 -24 -28 -33 -5 -44 10 -25
36 21 30 49 25 49 -8z"/>
<path d="M10685 1131 c-28 -16 -57 -36 -64 -45 -11 -14 -17 -11 -46 19 -18 19
-39 35 -47 35 -26 0 -50 -26 -50 -53 0 -35 16 -54 53 -62 35 -8 35 -10 7 -50
-29 -43 -78 -75 -135 -88 -47 -11 -48 -12 -14 -15 74 -8 161 51 195 131 15 38
109 125 144 133 12 4 22 10 22 15 0 14 -12 11 -65 -20z m-133 -38 c36 -32 9
-65 -31 -37 -23 17 -28 40 -8 47 19 8 19 8 39 -10z"/>
<path d="M3795 1140 c-4 -6 -3 -16 3 -22 6 -6 12 -6 17 2 4 6 3 16 -3 22 -6 6
-12 6 -17 -2z"/>
<path d="M8984 1139 c-10 -17 13 -36 27 -22 12 12 4 33 -11 33 -5 0 -12 -5
-16 -11z"/>
<path d="M299 1076 c-15 -32 20 -111 55 -128 15 -6 28 -9 30 -7 2 2 -1 29 -7
59 -17 92 -55 128 -78 76z"/>
<path d="M2501 1090 c-46 -11 -82 -39 -108 -86 -31 -53 -29 -61 15 -80 51 -22
119 -21 162 1 36 19 180 152 180 167 0 10 -203 9 -249 -2z"/>
<path d="M10051 1093 c2 -5 43 -46 90 -91 104 -97 141 -112 222 -88 81 24 82
26 56 80 -16 34 -34 54 -68 74 -42 25 -56 27 -175 31 -76 2 -127 -1 -125 -6z"/>
<path d="M12457 1082 c-17 -19 -44 -128 -34 -138 10 -10 48 17 67 49 23 36 26
77 8 95 -16 16 -22 15 -41 -6z"/>
<path d="M3780 1075 c0 -9 5 -15 11 -13 6 2 11 8 11 13 0 5 -5 11 -11 13 -6 2
-11 -4 -11 -13z"/>
<path d="M9000 1075 c0 -9 5 -15 11 -13 6 2 11 8 11 13 0 5 -5 11 -11 13 -6 2
-11 -4 -11 -13z"/>
<path d="M2845 1072 c-2 -2 26 -38 63 -79 103 -115 173 -147 262 -119 39 11
45 17 42 37 -6 39 -51 109 -85 129 -17 11 -49 22 -72 24 -62 8 -204 13 -210 8z"/>
<path d="M9825 1070 c-134 -9 -184 -37 -220 -122 -23 -57 -20 -64 40 -78 84
-20 129 1 236 111 84 85 93 101 60 97 -9 0 -61 -4 -116 -8z"/>
<path d="M2694 996 c-102 -102 -124 -137 -123 -200 2 -84 10 -101 48 -99 45 2
107 48 130 97 14 30 21 74 25 159 3 64 3 116 -1 116 -5 -1 -40 -34 -79 -73z"/>
<path d="M10029 1063 c-4 -38 4 -206 12 -235 12 -48 51 -94 100 -118 64 -33
75 -28 89 39 19 89 5 118 -107 229 -51 52 -93 90 -94 85z"/>
<path d="M2806 928 c0 -105 3 -129 21 -164 24 -46 37 -58 89 -85 35 -17 38
-17 50 -1 7 9 19 41 25 69 18 80 3 117 -89 216 -42 45 -81 83 -87 85 -6 2 -10
-41 -9 -120z"/>
<path d="M9919 983 c-109 -114 -131 -167 -103 -249 24 -73 29 -77 74 -54 48
24 86 70 100 118 12 44 14 252 2 252 -5 0 -38 -30 -73 -67z"/>
<path d="M3776 1033 c-11 -11 -6 -23 9 -23 8 0 15 4 15 9 0 13 -16 22 -24 14z"/>
<path d="M9000 1020 c0 -5 7 -10 15 -10 8 0 15 5 15 10 0 6 -7 10 -15 10 -8 0
-15 -4 -15 -10z"/>
<path d="M9006 971 c-4 -5 -2 -12 3 -15 5 -4 12 -2 15 3 4 5 2 12 -3 15 -5 4
-12 2 -15 -3z"/>
<path d="M3780 960 c0 -5 5 -10 10 -10 6 0 10 5 10 10 0 6 -4 10 -10 10 -5 0
-10 -4 -10 -10z"/>
<path d="M4347 940 c-67 -53 -89 -174 -44 -240 26 -39 47 -49 47 -23 0 11 18
57 41 103 35 73 53 149 39 164 -18 17 -58 15 -83 -4z"/>
<path d="M8388 949 c-28 -16 -21 -66 22 -159 22 -47 40 -95 40 -107 0 -33 21
-28 47 10 50 74 38 172 -28 232 -41 37 -53 41 -81 24z"/>
<path d="M8302 933 c-12 -5 -72 -125 -72 -144 0 -5 11 -9 24 -9 54 0 117 107
86 145 -13 16 -17 17 -38 8z"/>
<path d="M4455 911 c-14 -46 51 -131 101 -131 21 0 22 3 13 28 -29 79 -54 117
-81 120 -19 2 -28 -2 -33 -17z"/>
<path d="M1435 880 c-11 -18 5 -47 44 -83 98 -88 218 -127 395 -127 186 0 256
22 104 33 -105 7 -198 37 -372 121 -141 67 -160 74 -171 56z"/>
<path d="M11330 883 c-8 -2 -80 -36 -160 -73 -156 -74 -234 -98 -342 -107 -37
-3 -68 -9 -68 -14 0 -14 89 -22 203 -17 133 6 243 38 325 93 51 35 95 90 89
110 -4 12 -26 16 -47 8z"/>
<path d="M1224 806 c-13 -33 44 -88 129 -126 60 -27 182 -50 255 -49 l57 0
-35 16 c-82 37 -200 95 -270 133 -78 41 -127 50 -136 26z"/>
<path d="M11435 775 c-101 -58 -212 -111 -248 -120 -42 -11 -32 -25 17 -25 74
0 206 30 266 60 63 32 123 92 114 115 -11 28 -66 16 -149 -30z"/>
<path d="M1042 799 c-43 -16 -37 -65 11 -90 25 -14 157 -29 157 -18 0 12 -108
106 -127 111 -10 3 -29 1 -41 -3z"/>
<path d="M11694 784 c-49 -33 -104 -85 -99 -94 8 -13 140 10 165 28 40 30 37
72 -6 86 -14 4 -34 -2 -60 -20z"/>
<path d="M2970 488 c-27 -29 -25 -115 3 -132 30 -18 48 18 45 88 -3 67 -16 78
-48 44z"/>
<path d="M9790 441 c0 -51 4 -72 16 -82 14 -11 19 -10 35 10 24 30 24 68 -1
109 -33 55 -50 43 -50 -37z"/>
<path d="M2826 350 c-92 -29 -150 -109 -151 -207 0 -86 14 -96 61 -43 21 23
64 55 96 71 66 33 154 117 139 132 -5 5 -37 8 -70 5 -70 -5 -61 8 12 18 27 4
44 11 40 15 -14 14 -95 19 -127 9z"/>
<path d="M9885 353 c-35 -9 -41 -23 -9 -24 16 0 38 -4 49 -9 14 -6 4 -9 -37
-9 -42 -1 -58 -5 -58 -15 0 -22 94 -102 158 -135 34 -17 73 -46 88 -67 26 -34
29 -35 42 -17 9 12 12 38 10 80 -5 75 -42 136 -103 169 -42 23 -107 35 -140
27z"/>
</g>
</svg>
