<?xml version="1.0" ?><svg height="257.13" viewBox="0 0 257.13 257.13" width="257.13" xmlns="http://www.w3.org/2000/svg"><path d="M230.48,120.54a122.71,122.71,0,0,0-9.49-33,77.84,77.84,0,0,0-12.32-18.42,126.11,126.11,0,0,0-10.76-11c-5.23-4.73-10.86-8.79-18.64-7.64l-.77.09a17.16,17.16,0,0,1-4.64-.05c-.34,0-.68-.1-1-.18-5.76-1.5-11.12.26-16.53,1.59-1.39.34-2.95,1-2.62,3.38.87.38,1.88.89,2.93,1.25,4.18,1.44,8.48,2.67,10.56,7a9.64,9.64,0,0,1,.43,1,7.35,7.35,0,0,0,1.06,1.69,16.4,16.4,0,0,1,2.74,15c-.34,1.2-.71,2.38-1.09,3.55a56.27,56.27,0,0,1-4.64,10.77c-.47.83-1,1.65-1.51,2.44a47.83,47.83,0,0,1-3.83,4.79c-1.93,2.14-4,4.25-6.07,6.58a19.29,19.29,0,0,1-1.85-3.55,40.54,40.54,0,0,1-.5-18.23c1.13-5.92,1.75-11.72-.15-17.57a24.8,24.8,0,0,0-8.94,3.52c-9.52,6.15-13.22,18.2-11.83,27.58l-2,.68-12.07,4.1a7.72,7.72,0,0,1-.56-1.8c-.46-4-2.14-7.49-3.88-11.09C110,87.86,104,85.51,98.61,86.79c-3.85.93-7.5,2.72-11.6,4.26,2.59,2.13,4.76,3.89,6.87,5.65l.81.67a19,19,0,0,1,3.55,3.3c.11.15.2.31.3.46a34.54,34.54,0,0,1,4.59,9.51,35.62,35.62,0,0,1,1.47,10.67l-3.46-3.11L97,114.51c-2.2-2-4.37-3.89-6.59-5.74A26.27,26.27,0,0,1,86.71,105c-4-5-5.14-10.89-3.68-17.86.62-3,1.1-6.44-1-9.24-7.86.78-13.87,5.16-19.86,8.9-5.07,3.16-9.08,8.08-13.33,12.43-1.57,1.61-2.56,3.8-3.73,5.77-4.59,7.74-6.76,16.59-12.46,24-4.93,6.37-6.39,14.75-8.26,22.59-1.63,6.87-2.74,13.87-4,20.84a37.11,37.11,0,0,0-.77,8.38c.09,1.6,1,3.77,2.29,4.53,1.78,1.07,2.66-.95,3.59-2.39A103.26,103.26,0,0,1,37,168c6-6.45,13.33-9.29,21.8-8.3a18.58,18.58,0,0,1,9.45,3.56,15,15,0,0,1,5.27,8.33,50.21,50.21,0,0,1,1.24,6.14,56.38,56.38,0,0,1,.5,10.07c-.07,1.81-.58,3.66,1.79,5,.76-1,1.54-2.07,2.25-3.12,2.39-3.57,4.18-7.79,7.27-10.6,4.3-3.91,9.1-7,14.87-8.22a25.07,25.07,0,0,1,4.82-.5c3.07,0,5.47.2,7.45,2.46,2.6,3,4.91,6.25,7.71,9,3.39,3.36,5.15,7.46,6.51,11.8l.36,1.19c1.12,3.79,2.09,7.63,3.26,11.4.89,2.87,1.55,3.15,5.73,2.82.11-2.15.37-4.41.31-6.65-.1-4-.72-7.91-.53-11.83.11-2,.29-4,.56-6a59.34,59.34,0,0,1,1.26-6.64c1.33-5.22,5.37-8.47,9.45-11.67l.4-.31.29-.22c5-3.8,10.32-5.13,16.4-3.18a49.3,49.3,0,0,1,5,1.81,12,12,0,0,1,6.65,6.48c.47,1.12,2.51,1.57,4.44,2.69.24-4,.45-7.07.61-10.19a8.07,8.07,0,0,0-.11-2.46,15.43,15.43,0,0,1-.58-5.25,14.43,14.43,0,0,1,1-4.45,16.34,16.34,0,0,1,8.37-8.74,9.32,9.32,0,0,1,4.73-.88,41.84,41.84,0,0,1,7.12,1.9c8.44,2.66,14.77,6.89,14.93,17.14,0,3.28.58,7.33,4.48,10.15.93-1.42,2.22-2.62,2.55-4,1.49-6.4,2.75-12.85,4.45-19.21,1-3.76.62-7.88,1.42-11.72A41.81,41.81,0,0,0,230.48,120.54Zm-9.17,29.59a26.79,26.79,0,0,0-3.26-4.67c-3.11-3.58-6.85-5.93-10.9-8.11a47.87,47.87,0,0,0-13.67-5.28c-3.65-.71-6.43.34-9.19,2.06-7.81,4.86-10.93,12.41-11.84,21.16-.11,1-.16,2-.25,3-3.23-1.15-6.33-2.11-9.31-3.36-6.77-2.84-12.6-.69-17.19,4.1-5.58,5.81-10.82,12.08-11.44,20.8a80.07,80.07,0,0,1-1.37,8.15c-4.61-6.6-8.86-13.24-13.7-19.42-3.87-4.94-9.13-7.79-15.77-7.11-2,.2-4,.16-5.91.53C90,163.47,84.72,167.8,81.4,174.63a19.55,19.55,0,0,1-1,1.71,1.34,1.34,0,0,1-.32.28c-1.58-4.34-2.91-8.81-4.8-13-4.1-9.19-12.05-13.77-20.38-13a30.41,30.41,0,0,0-7.53,1.52,17.09,17.09,0,0,0-4.74,2.6,16.18,16.18,0,0,0-2.27,2.14,104.64,104.64,0,0,1-9.94,9.29c-1.05.91-2.1,1.83-3.13,2.77.15-1.58.18-3.24.49-4.85l.06-.34c1.29-6.82,2.44-13.6,4.92-20.23.67-1.78,1.34-3.53,2.06-5.26.54-1.3,1.1-2.59,1.71-3.87a55.51,55.51,0,0,1,3.54-6.44,91.5,91.5,0,0,0,8.12-15.22A36.94,36.94,0,0,1,58.77,98.05c4.74-4,8.52-9.45,15.26-11a12.85,12.85,0,0,1,0,3.28c-2.33,8.82,1.16,15.39,7.83,20.82a38.34,38.34,0,0,1,5.43,5.06c5,6,11.81,9.48,18.23,13.51a8.75,8.75,0,0,0,2.25.7c2.47-1.19,2.84-3.14,2.73-5.48-.53-11-2.53-21.35-10.67-29.54A5.9,5.9,0,0,1,99,94.14c5.37-2.64,7.19-2.2,9.09,3,1.45,4,3.66,7.81,3.44,12.34-.07,1.41.73,2.87,1.13,4.3,2.54,1.63,4.47.81,6.07-1.3a12.12,12.12,0,0,1,12-5.08,20.19,20.19,0,0,0,3.48.07c4.28-.17,5.82-2.36,3.93-6.11-4.58-9.08-.44-17.91,5.15-22.3a9.36,9.36,0,0,1,1.7-.74,12,12,0,0,1,.34,2.84c-.84,5.9-1.77,11.78-2.67,17.67a4.67,4.67,0,0,0-.07,1c.26,6.16,2.63,11.56,6,16.58a4.83,4.83,0,0,0,3.7,2.24c1.21-1.22,2.89-2.4,3.88-4,.55-.88,1.14-1.73,1.75-2.56.24-.33.48-.65.73-1,3-3.94,6.47-7.51,9-11.69A122.74,122.74,0,0,0,175.3,84a28.4,28.4,0,0,0,2-7.6c.93-7.29-2.68-13.1-6.55-18.77-.61-.89-1.36-1.7-2.86-3.54,4.17,1,7.29,1.64,10.37,2.46,1.59.42,3.07,1.33,4.67,1.66C192,60,197.74,66.25,203.28,73c4.88,6,8.07,12.73,11,19.71.94,2.24,2.11,4.37,3.1,6.59,3.64,8.06,3.52,16.71,4,25.28.32,6.12.78,12.24.95,18.37a14.36,14.36,0,0,1-.21,2.57C221.9,146.89,221.57,148.36,221.31,150.13ZM141.23,124.3c0,2.88-2.4,4.84-6.63,5.94-.82-5.34,2.19-9.69,3-15.15C143,117.28,141.26,121.18,141.23,124.3Zm-13,9.43c-2.06-.94-3.35-1.68-4.73-2.14-6.09-2-6.9-3.93-3.75-10C123.26,124.9,128.68,126.6,128.18,133.73Z" fill="#000000"/></svg>