<?xml version="1.0" encoding="iso-8859-1"?>
<!-- Generator: Adobe Illustrator 16.0.0, SVG Export Plug-In . SVG Version: 6.00 Build 0)  -->
<!DOCTYPE svg PUBLIC "-//W3C//DTD SVG 1.1//EN" "http://www.w3.org/Graphics/SVG/1.1/DTD/svg11.dtd">
<svg version="1.1" id="Capa_1" xmlns="http://www.w3.org/2000/svg" xmlns:xlink="http://www.w3.org/1999/xlink" x="0px" y="0px"
	 width="350.482px" height="350.482px" viewBox="0 0 350.482 350.482" style="enable-background:new 0 0 350.482 350.482;"
	 xml:space="preserve">
<g>
	<g id="Artwork_18_">
		<g id="Layer_5_18_">
			<path d="M168.081,99.115c3.141,0,17.629-12.171,20.995-17.289c1.678-2.551,2.861-5.344,2.665-9.028
				c-0.35-6.522-5.683-11.909-12.213-11.909c-6.426,0-10.503,7.164-11.467,7.164c-0.844,0-4.755-7.164-11.469-7.164
				c-6.531,0-11.864,5.386-12.213,11.909c-0.197,3.684,0.99,6.488,2.665,9.028C150.386,86.901,165.007,99.115,168.081,99.115z"/>
			<path d="M226.751,114.576c-0.249,4.65,1.251,8.19,3.364,11.395c4.22,6.405,22.675,21.824,26.557,21.824
				c3.964,0,22.252-15.363,26.501-21.824c2.118-3.22,3.613-6.745,3.363-11.395c-0.44-8.233-7.172-15.032-15.417-15.032
				c-8.111,0-13.258,9.043-14.475,9.043c-1.066,0-6.001-9.043-14.478-9.043C233.923,99.544,227.191,106.343,226.751,114.576z"/>
			<path d="M231.269,47.262c2.539,0,14.25-9.838,16.972-13.976c1.356-2.063,2.314-4.319,2.153-7.297
				c-0.282-5.273-4.594-9.626-9.872-9.626c-5.195,0-8.491,5.791-9.271,5.791c-0.682,0-3.843-5.791-9.271-5.791
				c-5.28,0-9.591,4.353-9.872,9.626c-0.159,2.978,0.801,5.245,2.153,7.297C216.965,37.388,228.784,47.262,231.269,47.262z"/>
			<path d="M348.389,205.502c-7.071-25.273-32.691-41.736-58.307-36.026c-25.201,5.617-34.928,37.276-38.71,38.12
				c-3.309,0.738-24.905-23.939-51.238-18.07c-25.613,5.709-41.818,31.495-37.485,57.378c2.448,14.621,9.556,24.578,18.341,33.076
				c17.547,16.975,85.562,52.097,97.618,49.41c12.316-2.745,58.499-63.14,67.223-86.152
				C350.181,231.764,352.382,219.779,348.389,205.502z"/>
			<path d="M169.17,292.197c-8.285-8.016-19.713-21.139-23.288-42.486c-2.811-16.796,0.739-33.941,9.998-48.283
				c9.461-14.655,23.865-24.775,40.556-28.496c3.902-0.87,7.916-1.311,11.931-1.311c15.489,0,27.628,6.055,36.922,11.971
				c0.708,0.438,1.166,0.006,1.028-0.268c-9.016-17.977-24.104-32.238-44.826-36.857c-35.291-7.865-64.233,25.206-68.668,24.218
				c-5.068-1.129-18.104-43.559-51.877-51.087c-34.328-7.651-68.664,14.41-78.14,48.28c-5.353,19.133-2.401,35.196,3.428,50.571
				c11.692,30.841,73.583,111.78,90.09,115.459c10.145,2.261,47.232-13.968,81.073-33.023c0.812-0.555,0.719-1.242,0.186-1.635
				C174.16,296.734,171.675,294.621,169.17,292.197z"/>
		</g>
	</g>
</g>
<g>
</g>
<g>
</g>
<g>
</g>
<g>
</g>
<g>
</g>
<g>
</g>
<g>
</g>
<g>
</g>
<g>
</g>
<g>
</g>
<g>
</g>
<g>
</g>
<g>
</g>
<g>
</g>
<g>
</g>
</svg>
