<?xml version="1.0" encoding="UTF-8" standalone="no"?>
<svg width="159px" height="58px" viewBox="0 0 159 58" version="1.1" xmlns="http://www.w3.org/2000/svg" xmlns:xlink="http://www.w3.org/1999/xlink" xmlns:sketch="http://www.bohemiancoding.com/sketch/ns">
    <!-- Generator: Sketch 3.3 (11970) - http://www.bohemiancoding.com/sketch -->
    <title>LR-logo-rgb-bw</title>
    <desc>Created with Sketch.</desc>
    <defs></defs>
   
        <g id="BrandBook_01_logo" sketch:type="MSArtboardGroup" transform="translate(-597.000000, -379.000000)" fill="white">
            <g id="LR-logo-rgb-bw" sketch:type="MSLayerGroup" transform="translate(597.000000, 379.000000)">
                <path d="M20.8832695,6.69281967 L13.8149102,6.69281967 C13.6882814,9.69455738 13.5454671,12.4262623 13.3883713,14.8907869 C13.2293713,17.3543607 13.0151497,19.5735738 12.7476108,21.5474754 C12.4781677,23.5204262 12.1220838,25.2661311 11.6793593,26.7826885 C11.2366347,28.2982951 10.6672814,29.6094754 9.9712994,30.7152787 C9.52857485,31.4417049 9.02967665,32.042623 8.47650898,32.5151803 C7.92334132,32.9886885 7.34541916,33.3680656 6.7455988,33.6523607 C6.14387425,33.9366557 5.55071856,34.1334754 4.96613174,34.2447213 C4.38059281,34.3550164 3.83504192,34.4101639 3.32947904,34.4101639 C2.60207784,34.4101639 1.99273653,34.3550164 1.50240719,34.2447213 C1.01302994,34.1334754 0.531269461,33.9680328 0.0561736527,33.7474426 L0.767389222,28.156623 C0.956856287,28.2203279 1.14632335,28.2678689 1.33674251,28.2982951 C1.52620958,28.330623 1.71662874,28.3467869 1.90609581,28.3467869 C2.41165868,28.3467869 2.91055689,28.2203279 3.39993413,27.966459 C3.89026347,27.7144918 4.30918563,27.2885246 4.65860479,26.6866557 C5.13179641,25.9935082 5.5431018,24.9751803 5.89156886,23.632623 C6.23908383,22.2900656 6.54756287,20.5766885 6.81605389,18.491541 C7.08454491,16.4063934 7.29876647,13.92 7.45681437,11.0285574 C7.61486228,8.13901639 7.72435329,4.76740984 7.78909581,0.913737705 L27.3832275,0.913737705 L27.3832275,34.0792787 L20.8832695,34.0792787 L20.8832695,6.69281967" id="Fill-1" sketch:type="MSShapeGroup"></path>
                <path d="M46.6241317,23.2760656 L46.8602515,19.9120656 L46.7183892,19.9120656 L44.6780479,23.3701967 L36.2329581,34.0792787 L32.3426946,34.0792787 L32.3426946,10.3886557 L38.5103713,10.3886557 L38.5103713,21.6644262 L38.2256946,24.8867541 L38.4151617,24.8867541 L40.3612455,21.5237049 L48.9005928,10.3886557 L52.7908563,10.3886557 L52.7908563,34.0792787 L46.6241317,34.0792787 L46.6241317,23.2760656" id="Fill-2" sketch:type="MSShapeGroup"></path>
                <path d="M76.1295808,15.8368525 L69.5344132,15.8368525 L69.5344132,34.0783279 L63.1772695,34.0783279 L63.1772695,15.8368525 L56.3935868,15.8368525 L56.3935868,10.3886557 L76.1295808,10.3886557 L76.1295808,15.8368525" id="Fill-3" sketch:type="MSShapeGroup"></path>
                <path d="M80.1778922,1.24367213 C81.5060659,0.992655738 82.9694371,0.793934426 84.5670539,0.652262295 C86.1627665,0.510590164 87.7527665,0.438327869 89.3341976,0.438327869 C90.9784671,0.438327869 92.6322575,0.573344262 94.2927126,0.84147541 C95.9522156,1.11055738 97.4479581,1.64681967 98.7761317,2.45311475 C100.104305,3.2575082 101.186838,4.37947541 102.025635,5.81616393 C102.862527,7.25380328 103.282401,9.12596721 103.282401,11.4307541 C103.282401,13.5159016 102.919653,15.2768197 102.191299,16.714459 C101.463898,18.1520984 100.498473,19.3273115 99.2969281,20.2439016 C98.0944311,21.159541 96.7272216,21.8241639 95.1943473,22.2330164 C93.6595689,22.6447213 92.070521,22.8491475 90.4262515,22.8491475 L89.6655269,22.8491475 C89.318012,22.8491475 88.9543114,22.841541 88.5744251,22.825377 C88.195491,22.8101639 87.8232216,22.7863934 87.459521,22.7550164 C87.0958204,22.7245902 86.8349461,22.6922623 86.6768982,22.6608852 L86.6768982,34.0792787 L80.1778922,34.0792787 L80.1778922,1.24367213 L80.1778922,1.24367213 Z M89.8559461,6.02914754 C89.2237545,6.02914754 88.622982,6.05291803 88.0536287,6.10140984 C87.4842754,6.148 87.0253653,6.20409836 86.6778503,6.26685246 L86.6778503,17.0215738 C86.8035269,17.0539016 86.9939461,17.0852787 87.2472036,17.1166557 C87.499509,17.1480328 87.7689521,17.1727541 88.0536287,17.1879672 C88.3383054,17.2041311 88.6144132,17.2117377 88.8838563,17.2117377 L89.4760599,17.2117377 C90.3310419,17.2117377 91.1774551,17.1337705 92.0152994,16.9749836 C92.8531437,16.8171475 93.6043473,16.5242951 94.2689102,16.0983279 C94.9334731,15.6714098 95.4618862,15.0790492 95.8579581,14.3212459 C96.2521257,13.5634426 96.4511138,12.5679344 96.4511138,11.336623 C96.4511138,10.2945246 96.2616467,9.43403279 95.8817605,8.75419672 C95.5028263,8.07531148 95.002976,7.5304918 94.3869701,7.1197377 C93.7709641,6.70993443 93.0654611,6.42468852 92.2761737,6.26685246 C91.484982,6.10901639 90.6785569,6.02914754 89.8559461,6.02914754 L89.8559461,6.02914754 Z" id="Fill-4" sketch:type="MSShapeGroup"></path>
                <path d="M124.442731,32.0416721 C123.493491,32.7985246 122.205305,33.439377 120.576269,33.9604262 C118.948186,34.4814754 117.215371,34.742 115.381635,34.742 C111.55421,34.742 108.755048,33.6285902 106.983198,31.4008197 C105.211347,29.1749508 104.327802,26.1190164 104.327802,22.2330164 C104.327802,18.064623 105.323695,14.937377 107.315479,12.8522295 C109.308216,10.767082 112.107377,9.72593443 115.712964,9.72593443 C116.914509,9.72593443 118.085587,9.88377049 119.224293,10.1994426 C120.363,10.5151148 121.374126,11.0361639 122.261479,11.7625902 C123.146928,12.4890164 123.857192,13.4683607 124.395126,14.6996721 C124.932108,15.9319344 125.202503,17.4646557 125.202503,19.2968852 C125.202503,19.9596066 125.162515,20.6698689 125.083491,21.428623 C125.004467,22.1864262 124.886407,22.9756066 124.728359,23.7971148 L110.429784,23.7971148 C110.524042,25.7871803 111.148617,27.2875738 112.078814,28.2973443 C113.009012,29.3090164 114.514275,29.8139016 116.593653,29.8139016 C117.885647,29.8139016 119.025305,29.5628852 120.068802,29.221541 C121.369365,28.7974754 122.59376,28.219377 122.59376,28.219377 L124.442731,32.0416721 L124.442731,32.0416721 Z M115.653934,14.5551475 C113.72594,14.6112459 112.825257,15.0961639 112.020737,16.0422295 C111.220976,16.9825902 110.75921,18.2652459 110.603066,19.8759344 L119.461365,19.9596066 C119.587994,18.2538361 119.433754,16.9379016 118.79109,16.0213115 C118.145569,15.1056721 117.037329,14.5142623 115.653934,14.5551475 L115.653934,14.5551475 Z" id="Fill-5" sketch:type="MSShapeGroup"></path>
                <path d="M145.252689,14.9659016 C145.251737,14.9659016 143.363731,14.5836721 141.875605,14.5836721 C137.642587,14.5836721 134.892934,17.0035082 134.892934,22.3461639 C134.892934,27.3579344 136.990401,29.8348197 141.411934,29.8348197 C142.854359,29.8348197 145.631623,29.4497377 145.631623,29.4497377 L146.482796,33.7303279 C145.320287,34.1011475 143.040018,34.6592787 140.295126,34.6592787 C131.687228,34.6592787 128.522461,28.3876721 128.522461,22.0209836 C128.522461,15.6096066 132.244204,9.84763934 140.806401,9.84763934 C142.38688,9.84763934 144.340581,10.034 146.156228,10.4989508 L145.252689,14.9659016" id="Fill-6" sketch:type="MSShapeGroup"></path>
                <path d="M158.495389,13.6480656 C158.495389,15.5782295 156.927287,17.1432787 154.995485,17.1432787 C153.060826,17.1432787 151.494629,15.5782295 151.494629,13.6480656 C151.494629,11.7169508 153.060826,10.1519016 154.995485,10.1519016 C156.927287,10.1519016 158.495389,11.7169508 158.495389,13.6480656" id="Fill-7" sketch:type="MSShapeGroup"></path>
                <path d="M158.495389,30.9339672 C158.495389,32.8641311 156.927287,34.4291803 154.995485,34.4291803 C153.060826,34.4291803 151.494629,32.8641311 151.494629,30.9339672 C151.494629,29.0028525 153.060826,27.4368525 154.995485,27.4368525 C156.927287,27.4368525 158.495389,29.0028525 158.495389,30.9339672" id="Fill-8" sketch:type="MSShapeGroup"></path>
                <path d="M4.21873653,55.5145574 C3.04670659,55.5145574 2.11079641,55.1342295 1.41100599,54.3754754 C0.712167665,53.6157705 0.361796407,52.5974426 0.361796407,51.3242951 C0.361796407,50.0349836 0.71311976,49.0166557 1.41481437,48.266459 C2.11650898,47.5172131 3.06955689,47.1416393 4.27205389,47.1416393 C5.4745509,47.1416393 6.4275988,47.5172131 7.12929341,48.266459 C7.83098802,49.0166557 8.18231138,50.0311803 8.18231138,51.309082 C8.18231138,52.6183607 7.83003593,53.6452459 7.12548503,54.393541 C6.42093413,55.1399344 5.4517006,55.5145574 4.21873653,55.5145574 L4.21873653,55.5145574 Z M4.24158683,54.4230164 C5.81635329,54.4230164 6.60468862,53.3856721 6.60468862,51.309082 C6.60468862,49.2591148 5.82682635,48.2341311 4.27205389,48.2341311 C2.72204192,48.2341311 1.94703593,49.2638689 1.94703593,51.3242951 C1.94703593,53.3894754 2.71156886,54.4230164 4.24158683,54.4230164 L4.24158683,54.4230164 Z" id="Fill-9" sketch:type="MSShapeGroup"></path>
                <path d="M9.73327545,57.1518689 L9.73327545,54.172 L10.4797186,54.172 C11.0385988,53.36 11.457521,52.4367541 11.736485,51.4022623 C12.0164012,50.3668197 12.1563593,49.2172787 12.1563593,47.9536393 L12.1563593,47.3184918 L17.4176407,47.3184918 L17.4176407,54.172 L18.9038623,54.172 L18.9038623,57.1518689 L17.4176407,57.1518689 L17.4176407,55.3291475 L11.219497,55.3291475 L11.219497,57.1518689 L9.73327545,57.1518689 L9.73327545,57.1518689 Z M12.004976,54.172 L15.9228503,54.172 L15.9228503,48.4100328 L13.4540659,48.4100328 L13.4540659,48.5507541 C13.4540659,49.5538689 13.3331497,50.5237049 13.0922695,51.4612131 C12.8504371,52.3968197 12.4876886,53.302 12.004976,54.172 L12.004976,54.172 Z" id="Fill-10" sketch:type="MSShapeGroup"></path>
                <path d="M21.2031737,55.3291475 L21.2031737,47.3184918 L22.5989461,47.3184918 L22.5989461,53.3828197 L26.4187545,47.3184918 L27.9059281,47.3184918 L27.9059281,55.3291475 L26.5092036,55.3291475 L26.5092036,49.2657705 L22.697012,55.3291475 L21.2031737,55.3291475" id="Fill-11" sketch:type="MSShapeGroup"></path>
                <path d="M31.0421317,55.3291475 L31.0421317,47.3184918 L32.5283533,47.3184918 L32.5283533,50.5721967 L36.2577126,50.5721967 L36.2577126,47.3184918 L37.7448862,47.3184918 L37.7448862,55.3291475 L36.2577126,55.3291475 L36.2577126,51.6637377 L32.5283533,51.6637377 L32.5283533,55.3291475 L31.0421317,55.3291475" id="Fill-12" sketch:type="MSShapeGroup"></path>
                <path d="M45.9271976,55.3291475 L45.9271976,47.3184918 L47.4134192,47.3184918 L47.421988,50.8222623 C48.1160659,50.8222623 48.5606946,50.7557049 48.7568263,50.623541 C48.9539102,50.4904262 49.2633413,50.0463934 49.6860719,49.2885902 L49.8822036,48.9491475 C50.2744671,48.2502951 50.6172216,47.8043607 50.9085629,47.6094426 C51.2008563,47.4154754 51.6807126,47.3184918 52.3500359,47.3184918 L52.3500359,48.4100328 L52.2681557,48.4100328 C51.9453952,48.4100328 51.6997545,48.4813443 51.5321856,48.6239672 C51.3627126,48.7665902 51.1399222,49.088918 50.8638144,49.5909508 L50.7352814,49.8267541 C50.4382275,50.3630164 50.2173413,50.7043607 50.0707186,50.8517377 C49.9250479,51.0000656 49.6432275,51.1598033 49.2252575,51.3309508 C49.617521,51.435541 49.8917246,51.5543934 50.0478683,51.6894098 C50.204012,51.825377 50.4905928,52.1933443 50.9085629,52.7923607 L51.2636946,53.2943934 L51.5731257,53.7365246 L51.9653892,54.3041639 C52.0863054,54.4819672 52.2576826,54.720623 52.4785689,55.0201311 L52.7051677,55.3291475 L51.0904132,55.3291475 L50.8638144,55.0277377 C50.542006,54.5998689 50.2021078,54.1301639 49.8450719,53.6195738 C49.3966347,52.9844262 48.9586707,52.4158361 48.5311796,51.9147541 L47.4134192,51.9147541 L47.4134192,55.3291475 L45.9271976,55.3291475" id="Fill-13" sketch:type="MSShapeGroup"></path>
                <path d="M53.5620539,55.3291475 L53.5620539,54.2376066 C54.2161437,54.1891148 54.6979042,53.8772459 55.0073353,53.302 C55.3167665,52.7258033 55.4719581,51.8472459 55.4719581,50.6682295 L55.5319401,49.0527869 L55.5624072,48.1076721 L55.5624072,47.3184918 L60.8684371,47.3184918 L60.8684371,55.3291475 L59.3812635,55.3291475 L59.3812635,48.4841967 L56.9134311,48.4841967 L56.9134311,48.6163607 C56.9134311,48.7352131 56.9029581,48.9634098 56.8829641,49.3038033 L56.7848982,51.1921311 C56.7049222,52.5736721 56.3964431,53.6081639 55.8604132,54.2975082 C55.3243832,54.9859016 54.5579461,55.3291475 53.5620539,55.3291475" id="Fill-14" sketch:type="MSShapeGroup"></path>
                <path d="M64.0046407,55.3291475 L64.0046407,47.3184918 L65.4004132,47.3184918 L65.4004132,53.3828197 L69.2202216,47.3184918 L70.7073952,47.3184918 L70.7073952,55.3291475 L69.3106707,55.3291475 L69.3106707,49.2657705 L65.4994311,55.3291475 L64.0046407,55.3291475" id="Fill-15" sketch:type="MSShapeGroup"></path>
                <path d="M73.8445509,55.3291475 L73.8445509,47.3184918 L75.3307725,47.3184918 L75.3383892,50.8222623 C76.0324671,50.8222623 76.4780479,50.7557049 76.6741796,50.623541 C76.8712635,50.4904262 77.1806946,50.0463934 77.6034251,49.2885902 L77.7995569,48.9491475 C78.1918204,48.2502951 78.5336228,47.8043607 78.8259162,47.6094426 C79.1182096,47.4154754 79.599018,47.3184918 80.2683413,47.3184918 L80.2683413,48.4100328 L80.1845569,48.4100328 C79.8627485,48.4100328 79.6171078,48.4813443 79.4485868,48.6239672 C79.2800659,48.7665902 79.0572754,49.088918 78.7811677,49.5909508 L78.6526347,49.8267541 C78.3555808,50.3630164 78.1337425,50.7043607 77.9880719,50.8517377 C77.8424012,51.0000656 77.5605808,51.1598033 77.1426108,51.3309508 C77.5348743,51.435541 77.8090778,51.5543934 77.9652216,51.6894098 C78.1213653,51.825377 78.4079461,52.1933443 78.8259162,52.7923607 L79.1810479,53.2943934 L79.490479,53.7365246 L79.8827425,54.3041639 C80.0036587,54.4819672 80.1750359,54.720623 80.3959222,55.0201311 L80.622521,55.3291475 L79.0068144,55.3291475 L78.7811677,55.0277377 C78.4584072,54.5998689 78.118509,54.1301639 77.7614731,53.6195738 C77.313988,52.9844262 76.876024,52.4158361 76.4475808,51.9147541 L75.3307725,51.9147541 L75.3307725,55.3291475 L73.8445509,55.3291475" id="Fill-16" sketch:type="MSShapeGroup"></path>
                <path d="M87.2986168,57.1518689 L87.2986168,54.172 L88.0469641,54.172 C88.6058443,53.36 89.0247665,52.4367541 89.3037305,51.4022623 C89.5826946,50.3668197 89.7217006,49.2172787 89.7217006,47.9536393 L89.7217006,47.3184918 L94.9839341,47.3184918 L94.9839341,54.172 L96.4701557,54.172 L96.4701557,57.1518689 L94.9839341,57.1518689 L94.9839341,55.3291475 L88.7867425,55.3291475 L88.7867425,57.1518689 L87.2986168,57.1518689 L87.2986168,57.1518689 Z M89.5712695,54.172 L93.4891437,54.172 L93.4891437,48.4100328 L91.0203593,48.4100328 L91.0203593,48.5507541 C91.0203593,49.5538689 90.9003952,50.5237049 90.6585629,51.4612131 C90.4167305,52.3968197 90.0549341,53.302 89.5712695,54.172 L89.5712695,54.172 Z" id="Fill-17" sketch:type="MSShapeGroup"></path>
                <path d="M101.821886,55.5145574 C100.649856,55.5145574 99.712994,55.1342295 99.0141557,54.3754754 C98.3153174,53.6157705 97.9658982,52.5974426 97.9658982,51.3242951 C97.9658982,50.0349836 98.3162695,49.0166557 99.0179641,48.266459 C99.7196587,47.5172131 100.672707,47.1416393 101.875204,47.1416393 C103.077701,47.1416393 104.030749,47.5172131 104.732443,48.266459 C105.434138,49.0166557 105.784509,50.0311803 105.784509,51.309082 C105.784509,52.6183607 105.433186,53.6452459 104.728635,54.393541 C104.024084,55.1399344 103.05485,55.5145574 101.821886,55.5145574 L101.821886,55.5145574 Z M101.844737,54.4230164 C103.419503,54.4230164 104.207838,53.3856721 104.207838,51.309082 C104.207838,49.2591148 103.430928,48.2341311 101.875204,48.2341311 C100.325192,48.2341311 99.5501856,49.2638689 99.5501856,51.3242951 C99.5501856,53.3894754 100.314719,54.4230164 101.844737,54.4230164 L101.844737,54.4230164 Z" id="Fill-18" sketch:type="MSShapeGroup"></path>
                <path d="M113.001395,55.3291475 L113.001395,47.3184918 L114.487617,47.3184918 L114.496186,50.8222623 C115.190263,50.8222623 115.634892,50.7557049 115.831976,50.623541 C116.028108,50.4904262 116.337539,50.0463934 116.760269,49.2885902 L116.957353,48.9491475 C117.349617,48.2502951 117.691419,47.8043607 117.983713,47.6094426 C118.276006,47.4154754 118.755862,47.3184918 119.425186,47.3184918 L119.425186,48.4100328 L119.342353,48.4100328 C119.019593,48.4100328 118.773952,48.4813443 118.606383,48.6239672 C118.437862,48.7665902 118.21412,49.088918 117.938012,49.5909508 L117.809479,49.8267541 C117.513377,50.3630164 117.291539,50.7043607 117.144916,50.8517377 C117.000198,51.0000656 116.717425,51.1598033 116.299455,51.3309508 C116.692671,51.435541 116.966874,51.5543934 117.123018,51.6894098 C117.279162,51.825377 117.56479,52.1933443 117.983713,52.7923607 L118.337892,53.2943934 L118.647323,53.7365246 L119.039587,54.3041639 C119.160503,54.4819672 119.33188,54.720623 119.552766,55.0201311 L119.780317,55.3291475 L118.163659,55.3291475 L117.938012,55.0277377 C117.615251,54.5998689 117.276305,54.1301639 116.919269,53.6195738 C116.470832,52.9844262 116.032868,52.4158361 115.605377,51.9147541 L114.487617,51.9147541 L114.487617,55.3291475 L113.001395,55.3291475" id="Fill-19" sketch:type="MSShapeGroup"></path>
                <path d="M121.689269,55.3291475 L121.689269,47.3184918 L123.176443,47.3184918 L123.176443,50.5721967 L126.905802,50.5721967 L126.905802,47.3184918 L128.392024,47.3184918 L128.392024,55.3291475 L126.905802,55.3291475 L126.905802,51.6637377 L123.176443,51.6637377 L123.176443,55.3291475 L121.689269,55.3291475" id="Fill-20" sketch:type="MSShapeGroup"></path>
                <path d="M131.373988,55.3291475 L131.373988,47.3184918 L132.770713,47.3184918 L132.770713,53.3828197 L136.590521,47.3184918 L138.076743,47.3184918 L138.076743,55.3291475 L136.68097,55.3291475 L136.68097,49.2657705 L132.869731,55.3291475 L131.373988,55.3291475" id="Fill-21" sketch:type="MSShapeGroup"></path>
                <path d="M141.058707,55.3291475 L141.058707,47.3184918 L147.021683,47.3184918 L147.021683,48.593541 L142.544928,48.593541 L142.544928,55.3291475 L141.058707,55.3291475" id="Fill-22" sketch:type="MSShapeGroup"></path>
            </g>
        </g>
   
</svg>