<?xml version="1.0" encoding="utf-8"?>
<!-- Generator: Adobe Illustrator 16.0.0, SVG Export Plug-In . SVG Version: 6.00 Build 0)  -->
<!DOCTYPE svg PUBLIC "-//W3C//DTD SVG 1.1//EN" "http://www.w3.org/Graphics/SVG/1.1/DTD/svg11.dtd">
<svg version="1.1" id="Layer_1" xmlns="http://www.w3.org/2000/svg" xmlns:xlink="http://www.w3.org/1999/xlink" x="0px" y="0px"
	 width="24px" height="24px" viewBox="0 0 24 24" enable-background="new 0 0 24 24" xml:space="preserve">
<g>
	<circle cx="16.63" cy="3.021" r="0.355"/>
	<path d="M21.835,17.078c-1.138-2.993-3.736-4.229-3.77-4.245l-1.19-0.428c1.002-4.045,0.728-6.416,0.368-7.639
		c-0.004-0.017-0.008-0.032-0.013-0.048c0.009-0.021,0.019-0.042,0.025-0.064c0.144,0.073,0.304,0.124,0.467,0.124
		c0.175,0,0.335-0.063,0.451-0.18c0.222-0.223,0.233-0.559,0.056-0.917c0.379-0.127,0.609-0.373,0.609-0.688
		s-0.229-0.562-0.609-0.688c0.178-0.358,0.166-0.694-0.057-0.918c-0.115-0.115-0.275-0.179-0.45-0.179
		c-0.163,0-0.323,0.052-0.467,0.123c-0.127-0.38-0.374-0.609-0.688-0.609c-0.316,0-0.563,0.229-0.689,0.609
		c-0.145-0.071-0.304-0.123-0.467-0.123c-0.041,0-0.082,0.005-0.121,0.012c-0.867-0.795-1.967-1.25-3.267-1.218
		C7.028,0.125,6.513,5.353,6.463,6.176c-0.169,1.447-0.124,3.525,0.623,6.229l-1.117,0.415l-0.034,0.014
		c-0.034,0.016-2.632,1.252-3.77,4.245c-0.23,0.61-0.402,1.293-0.479,2.053c0.289,0.352,0.597,0.687,0.92,1.006
		c0.344,0.341,0.709,0.662,1.089,0.965c2.278,1.812,5.159,2.896,8.296,2.898c0.007,0,0.014,0,0.021,0
		c0.223,0,0.443-0.006,0.664-0.017c0.006,0,0.012-0.001,0.018-0.001c2.869-0.146,5.498-1.202,7.608-2.88
		c0.381-0.303,0.746-0.624,1.091-0.966c0.323-0.319,0.631-0.654,0.92-1.006C22.237,18.371,22.066,17.688,21.835,17.078z
		 M15.274,1.701c0.133-0.133,0.501,0.019,0.821,0.34c0.054,0.053,0.1,0.106,0.143,0.16c-0.008-0.068-0.013-0.14-0.013-0.215
		c0-0.453,0.153-0.82,0.342-0.82c0.188,0,0.34,0.367,0.34,0.82c0,0.075-0.004,0.146-0.012,0.215c0.043-0.054,0.09-0.107,0.143-0.16
		c0.32-0.321,0.688-0.473,0.82-0.34S17.84,2.202,17.52,2.522c-0.053,0.053-0.106,0.1-0.161,0.143
		c0.068-0.008,0.141-0.013,0.215-0.013c0.453,0,0.82,0.153,0.82,0.341s-0.367,0.341-0.82,0.341c-0.074,0-0.146-0.005-0.215-0.013
		c0.055,0.044,0.108,0.09,0.161,0.143c0.32,0.321,0.472,0.688,0.339,0.822c-0.133,0.133-0.5-0.02-0.82-0.34
		c-0.053-0.054-0.1-0.107-0.143-0.161c0.008,0.068,0.012,0.14,0.012,0.215c0,0.453-0.152,0.82-0.34,0.82
		c-0.188,0-0.342-0.367-0.342-0.82c0-0.075,0.005-0.146,0.013-0.215c-0.043,0.054-0.089,0.107-0.143,0.161
		c-0.32,0.32-0.688,0.473-0.821,0.34c-0.133-0.134,0.02-0.501,0.34-0.822c0.053-0.053,0.107-0.099,0.161-0.143
		c-0.068,0.008-0.14,0.013-0.215,0.013c-0.454,0-0.821-0.153-0.821-0.341s0.367-0.341,0.821-0.341c0.075,0,0.146,0.005,0.215,0.013
		c-0.054-0.043-0.108-0.09-0.161-0.143C15.294,2.202,15.142,1.834,15.274,1.701z M15.923,8.851
		c-0.001,0.002-0.001,0.005-0.002,0.008c-0.055,0.061-0.112,0.123-0.175,0.186c0.001-0.004,0.003-0.008,0.004-0.012
		C15.811,8.971,15.868,8.91,15.923,8.851z M14.567,13.353c-0.161,0.002-0.291,0.134-0.291,0.296c0,0.072,0.026,0.137,0.069,0.188
		c-0.02-0.004-0.04-0.006-0.06-0.006c-0.172,0-0.311,0.139-0.311,0.31c0,0.078,0.029,0.148,0.076,0.202
		c-0.058-0.049-0.132-0.079-0.213-0.079c-0.185,0-0.333,0.149-0.333,0.333c0,0.028,0.005,0.056,0.011,0.082
		c-0.066-0.062-0.154-0.101-0.253-0.101c-0.206,0-0.373,0.167-0.373,0.374c0,0.006,0.001,0.011,0.001,0.017
		c-0.074-0.082-0.182-0.135-0.303-0.135c-0.176,0-0.325,0.112-0.383,0.269c-0.08-0.064-0.181-0.104-0.291-0.104
		c-0.146,0-0.273,0.067-0.359,0.172c-0.034-0.191-0.201-0.336-0.402-0.336c-0.12,0-0.228,0.053-0.303,0.135
		c0-0.006,0.002-0.011,0.002-0.017c0-0.207-0.167-0.374-0.373-0.374c-0.099,0-0.188,0.039-0.254,0.101
		c0.007-0.026,0.012-0.054,0.012-0.082c0-0.184-0.148-0.333-0.333-0.333c-0.081,0-0.155,0.03-0.214,0.079
		c0.047-0.054,0.077-0.124,0.077-0.202c0-0.171-0.139-0.31-0.31-0.31c-0.021,0-0.041,0.002-0.061,0.006
		c0.043-0.052,0.069-0.116,0.069-0.188c0-0.162-0.13-0.294-0.292-0.296c0.06-0.052,0.098-0.127,0.098-0.213
		c0-0.156-0.126-0.282-0.283-0.282c-0.006,0-0.011,0.001-0.017,0.001c0.087-0.036,0.147-0.122,0.147-0.223
		c0-0.024-0.005-0.048-0.012-0.071H9.12c0,0,0.223-0.241,0.392-0.762c0.075,0.021,0.117,0.03,0.117,0.03
		c-0.035-0.027-0.066-0.054-0.101-0.081c0.029-0.093,0.057-0.192,0.08-0.303c0.643,0.663,1.438,1.067,2.377,1.067
		c0.002,0,0.004,0,0.006,0c0.001,0,0.002,0,0.002,0c0.869,0,1.627-0.366,2.255-0.978c0.132,0.538,0.336,0.845,0.421,0.955
		c-0.029,0.04-0.047,0.089-0.047,0.142c0,0.101,0.062,0.187,0.148,0.223c-0.006,0-0.012-0.001-0.018-0.001
		c-0.156,0-0.283,0.126-0.283,0.282C14.47,13.226,14.509,13.301,14.567,13.353z M11.991,11.555c-0.008,0-0.016-0.001-0.023-0.001
		c-0.073-0.001-0.145-0.007-0.215-0.015c-0.027-0.003-0.055-0.006-0.08-0.01c-0.064-0.011-0.129-0.024-0.191-0.041
		c-0.039-0.01-0.078-0.021-0.115-0.033c-0.029-0.01-0.057-0.02-0.084-0.03c-0.078-0.029-0.155-0.062-0.23-0.1
		c-0.008-0.005-0.016-0.009-0.024-0.013C9.998,10.774,9.252,9.4,8.879,7.81c0.407-0.316,0.798-0.479,0.798-0.479
		c1.854-0.78,3.117-1.709,3.976-2.574c0.388,0.779,1.037,1.187,1.693,1.392C15.167,8.859,13.919,11.549,11.991,11.555z
		 M12.009,1.331c1.078,0,2.07,0.338,2.865,0.902c0.01,0.023,0.019,0.047,0.031,0.071c-0.246,0.082-0.428,0.215-0.526,0.384
		c-0.723-0.252-1.524-0.394-2.37-0.394c-1.654,0-3.145,0.538-4.189,1.396C8.607,2.288,10.187,1.331,12.009,1.331z M19.114,19.999
		c0.029-0.993,0.039-2.262-0.041-3.396l-0.959,0.066c0.096,1.373,0.056,2.992,0.012,4.007c-0.002,0.063-0.006,0.124-0.008,0.182
		c-0.02-0.045-0.041-0.091-0.063-0.139c-0.639-1.369-2.396-3.885-6.131-1.652c-3.59-2.146-5.354,0.096-6.052,1.489
		c-0.046-1.003-0.086-2.522,0.001-3.856l-0.959-0.063C4.84,17.778,4.854,19.024,4.888,20c-0.754-0.573-1.435-1.236-2.029-1.972
		c0.799-2.966,3.221-4.197,3.465-4.314l2.402-0.892c0.041,0.034,0.095,0.056,0.153,0.056c0.003,0,0.006-0.001,0.009-0.001
		c-0.105,0.041-0.18,0.143-0.18,0.263c0,0.153,0.121,0.277,0.273,0.282c-0.065,0.055-0.107,0.135-0.107,0.227
		c0,0.163,0.133,0.296,0.297,0.296c0.018,0,0.035-0.002,0.053-0.005c-0.047,0.054-0.076,0.124-0.076,0.201
		c0,0.172,0.139,0.31,0.311,0.31c0.075,0,0.143-0.027,0.197-0.072c-0.052,0.059-0.084,0.135-0.084,0.219
		c0,0.184,0.148,0.333,0.333,0.333c0.083,0,0.159-0.032,0.218-0.083c-0.01,0.034-0.018,0.068-0.018,0.105
		c0,0.206,0.168,0.374,0.375,0.374c0.104,0,0.199-0.044,0.267-0.113c-0.001,0.01-0.003,0.021-0.003,0.03
		c0,0.228,0.184,0.411,0.41,0.411c0.12,0,0.227-0.053,0.303-0.135c0.025,0.211,0.191,0.378,0.404,0.402
		c-0.131,0.025-0.23,0.141-0.23,0.279s0.099,0.254,0.229,0.28c-0.242,0.021-0.434,0.222-0.434,0.471
		c0,0.239,0.178,0.435,0.408,0.468c-0.073,0.031-0.125,0.104-0.125,0.188c0,0.088,0.055,0.161,0.131,0.191
		c-0.037,0.025-0.063,0.065-0.063,0.113c0,0.076,0.063,0.139,0.139,0.139s0.139-0.063,0.139-0.139c0-0.048-0.025-0.088-0.063-0.113
		c0.076-0.03,0.13-0.104,0.13-0.191c0-0.087-0.054-0.16-0.13-0.19c0.218-0.043,0.383-0.234,0.383-0.465
		c0-0.244-0.184-0.441-0.419-0.47c0.138-0.02,0.245-0.138,0.245-0.281c0-0.139-0.1-0.254-0.23-0.279
		c0.189-0.021,0.342-0.157,0.392-0.337c0.065,0.043,0.144,0.069,0.228,0.069c0.228,0,0.41-0.184,0.41-0.411
		c0-0.01-0.002-0.021-0.002-0.03c0.067,0.069,0.162,0.113,0.267,0.113c0.207,0,0.374-0.168,0.374-0.374
		c0-0.037-0.007-0.072-0.017-0.105c0.058,0.051,0.134,0.083,0.218,0.083c0.184,0,0.332-0.149,0.332-0.333
		c0-0.084-0.031-0.16-0.083-0.219c0.054,0.045,0.122,0.072,0.198,0.072c0.17,0,0.309-0.138,0.309-0.31
		c0-0.077-0.029-0.147-0.076-0.201c0.018,0.003,0.035,0.005,0.054,0.005c0.165,0,0.297-0.133,0.297-0.296
		c0-0.092-0.042-0.172-0.107-0.227c0.151-0.005,0.273-0.129,0.273-0.282c0-0.12-0.075-0.222-0.181-0.263
		c0.004,0,0.007,0.001,0.01,0.001c0.082,0,0.152-0.04,0.197-0.102l2.616,0.938c0.221,0.108,2.651,1.367,3.46,4.321
		C20.544,18.768,19.864,19.427,19.114,19.999z"/>
</g>
</svg>
