<?xml version="1.0" encoding="iso-8859-1"?>
<!-- Generator: Adobe Illustrator 19.0.0, SVG Export Plug-In . SVG Version: 6.00 Build 0)  -->
<svg version="1.1" id="Layer_1" xmlns="http://www.w3.org/2000/svg" xmlns:xlink="http://www.w3.org/1999/xlink" x="0px" y="0px"
	 viewBox="0 0 512.197 512.197" style="enable-background:new 0 0 512.197 512.197;" xml:space="preserve">
<g>
	<g>
		<path d="M209.636,163.184c-5.973-5.973-14.507-9.387-23.04-9.387s-17.067,3.413-23.04,9.387c-12.8,12.8-12.8,33.28,0,46.08
			c5.973,5.973,14.507,9.387,23.04,9.387s17.067-3.413,23.04-9.387c5.973-5.973,9.387-14.507,9.387-23.04
			S215.61,169.157,209.636,163.184z"/>
	</g>
</g>
<g>
	<g>
		<path d="M499.77,438.811l-192-191.147c-0.853-52.053-2.56-116.907-1.707-136.533c0.853-71.68-56.32-108.373-95.573-110.933
			c-33.28-1.707-60.587,7.68-80.213,27.307c-20.48,20.48-27.307,51.2-19.627,83.627c-31.573-8.533-62.293-1.707-82.773,18.773
			C8.25,149.531-1.137,176.837,0.57,210.117c1.707,39.253,36.693,95.573,106.667,95.573c0.853,0,2.56,0,3.413,0
			c15.36,0,64,0,136.533,1.707l125.44,125.44l-11.947,11.947c-3.413,3.413-3.413,8.533,0,11.947c1.707,1.707,4.267,2.56,5.973,2.56
			s4.267-0.853,5.973-2.56l11.947-11.947l11.947,11.947l-11.093,12.8c-3.413,3.413-3.413,8.533,0,11.947
			c1.707,1.707,4.267,2.56,5.973,2.56s4.267-0.853,5.973-2.56l11.947-11.947l11.947,11.947l-11.947,11.947
			c-3.413,3.413-3.413,8.533,0,11.947c1.707,1.707,4.267,2.56,5.973,2.56c2.56,0,4.267-0.853,5.973-2.56l11.947-11.947l5.973,5.973
			c8.533,8.533,19.627,12.8,29.867,12.8c11.093,0,22.187-4.267,29.867-12.8C515.983,482.331,515.983,455.877,499.77,438.811z
			 M222.436,222.064c-9.387,9.387-22.187,15.36-35.84,15.36s-26.453-5.12-35.84-15.36c-19.627-19.627-19.627-52.053,0-72.533
			c9.387-9.387,22.187-15.36,35.84-15.36s26.453,5.12,35.84,15.36c9.387,9.387,15.36,22.187,15.36,35.84
			C236.943,199.024,231.823,211.824,222.436,222.064z"/>
	</g>
</g>
<g>
</g>
<g>
</g>
<g>
</g>
<g>
</g>
<g>
</g>
<g>
</g>
<g>
</g>
<g>
</g>
<g>
</g>
<g>
</g>
<g>
</g>
<g>
</g>
<g>
</g>
<g>
</g>
<g>
</g>
</svg>
