<?xml version="1.0" encoding="iso-8859-1"?>
<!-- Generator: Adobe Illustrator 19.0.0, SVG Export Plug-In . SVG Version: 6.00 Build 0)  -->
<svg version="1.1" id="Layer_1" xmlns="http://www.w3.org/2000/svg" xmlns:xlink="http://www.w3.org/1999/xlink" x="0px" y="0px"
	 viewBox="0 0 503.322 503.322" style="enable-background:new 0 0 503.322 503.322;" xml:space="preserve">
<g>
	<g>
		<g>
			<path d="M418.996,78.1H84.33c-3.428,0-6.231,2.794-6.231,6.231v334.657c0,3.436,2.803,6.231,6.231,6.231h334.666
				c3.428,0,6.222-2.794,6.222-6.231V84.331C425.218,80.894,422.423,78.1,418.996,78.1z M241.497,330.742
				c-2.959,11.672-9.728,22.233-19.569,30.546l-42.791,35.875c-1.614,1.345-3.593,2.022-5.58,2.022
				c-1.979,0-3.966-0.677-5.571-2.031l-42.765-35.849c-9.867-8.331-16.636-18.892-19.595-30.546
				c-1.961-7.784-1.519-12.982-1.224-14.865c2.222-21.799,19.534-38.2,40.387-38.2c11.212,0,21.113,4.018,28.264,11.151
				c7.385-7.064,17.755-11.151,29.279-11.151c20.853,0,38.157,16.401,40.387,38.2C243.006,317.777,243.458,322.975,241.497,330.742z
				 M387.373,379.833c-1.623,1.345-3.584,1.996-5.537,1.996c-2.499,0-4.972-1.067-6.682-3.141c-5.936-7.142-15.429-7.142-21.356,0
				c-6.318,7.628-14.848,11.819-24.038,11.819c-9.181,0-17.72-4.191-24.029-11.819c-5.936-7.142-15.429-7.142-21.356,0
				c-3.046,3.688-8.513,4.217-12.219,1.146c-3.688-3.063-4.2-8.53-1.137-12.219c6.309-7.628,14.848-11.819,24.029-11.819
				c9.19,0,17.72,4.191,24.038,11.819c5.927,7.142,15.421,7.142,21.357,0c6.309-7.628,14.848-11.819,24.029-11.819
				c9.19,0,17.72,4.191,24.038,11.819C391.565,371.302,391.061,376.77,387.373,379.833z M387.373,327.765
				c-1.623,1.345-3.584,1.996-5.537,1.996c-2.499,0-4.972-1.067-6.682-3.141c-5.936-7.142-15.429-7.142-21.356,0
				c-6.318,7.628-14.848,11.819-24.038,11.819c-9.181,0-17.72-4.191-24.029-11.819c-5.936-7.142-15.429-7.142-21.356,0
				c-3.046,3.697-8.513,4.218-12.219,1.146c-3.688-3.063-4.2-8.53-1.137-12.219c6.309-7.628,14.848-11.819,24.029-11.819
				c9.19,0,17.72,4.191,24.038,11.819c5.927,7.142,15.421,7.142,21.357,0c6.309-7.628,14.848-11.819,24.029-11.819
				c9.19,0,17.72,4.191,24.038,11.819C391.565,319.235,391.061,324.702,387.373,327.765z"/>
			<path d="M202.33,295.053c-9.832,0-18.068,4.695-21.495,12.253c-1.406,3.107-4.495,5.103-7.906,5.103
				c-3.402,0-6.5-1.996-7.906-5.103c-3.584-7.906-10.769-12.253-20.237-12.253c-13.772,0-22.059,11.464-23.144,22.797
				c-0.026,0.312-0.078,0.625-0.13,0.929c0.009,0-0.312,2.803,0.937,7.723c2.057,8.114,6.882,15.56,13.946,21.521l37.168,31.163
				l37.185-31.171c7.038-5.953,11.863-13.399,13.919-21.53c1.293-5.085,0.903-7.914,0.903-7.94
				C224.39,306.526,216.102,295.053,202.33,295.053z"/>
			<path d="M503.322,147.525c0-13.668-6.248-26.26-17.13-34.885c10.882-8.287,17.13-20.879,17.13-34.538
				c0-20.844-14.848-38.773-35.467-42.791C464.002,14.848,446.065,0,425.22,0c-13.668,0-26.251,6.24-34.885,17.122
				C382.047,6.239,369.464,0,355.797,0c-13.668,0-26.251,6.24-34.885,17.122C312.624,6.239,300.041,0,286.373,0
				c-13.668,0-26.251,6.24-34.885,17.122C243.2,6.239,230.617,0,216.949,0s-26.251,6.24-34.885,17.122
				C173.776,6.239,161.193,0,147.525,0c-13.668,0-26.251,6.24-34.885,17.122C104.353,6.239,91.769,0,78.102,0
				c-20.844,0-38.782,14.848-42.8,35.467C14.848,39.329,0,57.257,0,78.102c0,13.659,6.248,26.251,17.13,34.885
				C6.248,121.266,0,133.858,0,147.525c0,13.659,6.248,26.251,17.13,34.885C6.248,190.69,0,203.281,0,216.949
				c0,13.659,6.248,26.251,17.13,34.885C6.248,260.113,0,272.705,0,286.373c0,13.659,6.248,26.251,17.13,34.885
				C6.248,329.537,0,342.129,0,355.797c0,13.659,6.248,26.251,17.13,34.885C6.248,398.961,0,411.553,0,425.22
				c0,20.844,14.848,38.773,35.467,42.791c3.853,20.454,21.79,35.311,42.635,35.311c13.668,0,26.251-6.239,34.885-17.122
				c8.287,10.882,20.87,17.122,34.538,17.122c13.668,0,26.251-6.239,34.885-17.122c8.287,10.882,20.871,17.122,34.538,17.122
				s26.251-6.239,34.885-17.122c8.287,10.882,20.871,17.122,34.538,17.122c13.668,0,26.251-6.239,34.885-17.122
				c8.287,10.882,20.87,17.122,34.538,17.122c13.668,0,26.251-6.239,34.885-17.122c8.287,10.882,20.871,17.122,34.538,17.122
				c20.844,0,38.782-14.857,42.8-35.467c20.454-3.862,35.302-21.79,35.302-42.635c0-13.668-6.248-26.259-17.13-34.885
				c10.882-8.287,17.13-20.879,17.13-34.538c0-13.668-6.248-26.26-17.13-34.885c10.882-8.287,17.13-20.879,17.13-34.538
				c0-13.668-6.248-26.26-17.13-34.885c10.882-8.287,17.13-20.879,17.13-34.538c0-13.668-6.248-26.26-17.13-34.885
				C497.074,173.776,503.322,161.185,503.322,147.525z M442.576,418.99c0,13.008-10.578,23.587-23.587,23.587H84.332
				c-13.008,0-23.587-10.578-23.587-23.587V84.333c0-13.008,10.578-23.587,23.587-23.587H418.99
				c13.008,0,23.587,10.578,23.587,23.587V418.99z"/>
		</g>
	</g>
</g>
<g>
</g>
<g>
</g>
<g>
</g>
<g>
</g>
<g>
</g>
<g>
</g>
<g>
</g>
<g>
</g>
<g>
</g>
<g>
</g>
<g>
</g>
<g>
</g>
<g>
</g>
<g>
</g>
<g>
</g>
</svg>
