<?xml version="1.0" encoding="iso-8859-1"?>
<!-- Generator: Adobe Illustrator 16.0.0, SVG Export Plug-In . SVG Version: 6.00 Build 0)  -->
<!DOCTYPE svg PUBLIC "-//W3C//DTD SVG 1.1//EN" "http://www.w3.org/Graphics/SVG/1.1/DTD/svg11.dtd">
<svg version="1.1" id="Capa_1" xmlns="http://www.w3.org/2000/svg" xmlns:xlink="http://www.w3.org/1999/xlink" x="0px" y="0px"
	 width="520.707px" height="520.708px" viewBox="0 0 520.707 520.708" style="enable-background:new 0 0 520.707 520.708;"
	 xml:space="preserve">
<g>
	<g>
		<path d="M361.74,165.919c-7.621-67.875-85.441-121.252-180.492-121.252C81.147,44.667,0,103.839,0,176.82
			s81.147,132.154,181.248,132.154c3.758,0,7.43-0.249,11.13-0.411c-0.334-3.328-0.669-6.665-0.669-10.061
			C191.709,226.478,267.598,167.784,361.74,165.919z M183.896,221.257l-1.836-1.874c-51.417-20.751-70.217-67.531-47.573-88.281
			c22.634-20.76,48.578,6.235,48.578,6.235h0.191c0,0,25.943-26.995,48.587-6.235C254.487,151.852,235.314,200.506,183.896,221.257z
			"/>
		<ellipse cx="106.488" cy="335.615" rx="29.453" ry="23.294"/>
		<ellipse cx="83.519" cy="375.223" rx="12.9" ry="9.974"/>
		<path d="M520.707,298.512c0-62.185-69.127-112.589-154.406-112.589c-1.5,0-2.955,0.134-4.445,0.163
			c-83.203,1.731-149.96,51.341-149.96,112.426c0,2.831,0.296,5.604,0.583,8.377c5.9,58.255,72.427,104.212,153.832,104.212
			C451.58,411.101,520.707,360.698,520.707,298.512z M365.613,336.351l-1.568,0.02c-43.807-17.682-60.139-55.96-40.852-73.642
			c19.287-17.681,41.396,8.482,41.396,8.482h0.162c0,0,22.1-26.163,41.396-8.482C425.445,280.411,409.418,318.67,365.613,336.351z"
			/>
		<path d="M455.09,433.793c0-6.895-4.457-12.958-11.207-16.515c-3.979-2.095-8.75-3.328-13.885-3.328
			c-11.123,0-20.445,5.767-23.734,13.685c-0.812,1.95-1.359,3.997-1.359,6.158c0,10.958,11.236,19.842,25.094,19.842
			C443.854,453.635,455.09,444.751,455.09,433.793z"/>
		<ellipse cx="449.562" cy="467.539" rx="10.996" ry="8.501"/>
	</g>
</g>
<g>
</g>
<g>
</g>
<g>
</g>
<g>
</g>
<g>
</g>
<g>
</g>
<g>
</g>
<g>
</g>
<g>
</g>
<g>
</g>
<g>
</g>
<g>
</g>
<g>
</g>
<g>
</g>
<g>
</g>
</svg>
